<?xml version="1.0" encoding="UTF-8" standalone="no"?>
<!-- Created with Inkscape (http://www.inkscape.org/) -->

<svg
   xmlns:dc="http://purl.org/dc/elements/1.1/"
   xmlns:cc="http://creativecommons.org/ns#"
   xmlns:rdf="http://www.w3.org/1999/02/22-rdf-syntax-ns#"
   xmlns:svg="http://www.w3.org/2000/svg"
   xmlns="http://www.w3.org/2000/svg"
   xmlns:sodipodi="http://sodipodi.sourceforge.net/DTD/sodipodi-0.dtd"
   xmlns:inkscape="http://www.inkscape.org/namespaces/inkscape"
   id="svg2"
   version="1.1"
   inkscape:version="0.91 r13725"
   xml:space="preserve"
   width="954.00269"
   height="214.13556"
   viewBox="0 0 954.00264 214.13556"
   sodipodi:docname="AequivalenzklassenMitGrenzwerten.svg"><metadata
     id="metadata8"><rdf:RDF><cc:Work
         rdf:about=""><dc:format>image/svg+xml</dc:format><dc:type
           rdf:resource="http://purl.org/dc/dcmitype/StillImage" /><dc:title></dc:title></cc:Work></rdf:RDF></metadata><defs
     id="defs6" /><sodipodi:namedview
     pagecolor="#ffffff"
     bordercolor="#666666"
     borderopacity="1"
     objecttolerance="10"
     gridtolerance="10"
     guidetolerance="10"
     inkscape:pageopacity="0"
     inkscape:pageshadow="2"
     inkscape:window-width="2560"
     inkscape:window-height="1387"
     id="namedview4"
     showgrid="false"
     fit-margin-top="0"
     fit-margin-left="0"
     fit-margin-right="0"
     fit-margin-bottom="0"
     inkscape:zoom="1.8126667"
     inkscape:cx="454.59735"
     inkscape:cy="82.846484"
     inkscape:window-x="-8"
     inkscape:window-y="-8"
     inkscape:window-maximized="1"
     inkscape:current-layer="g10" /><g
     id="g10"
     inkscape:groupmode="layer"
     inkscape:label="AequivalenzklassenMitGrenzwerten"
     transform="matrix(1.25,0,0,-1.25,-75.010375,377.15975)"><path
       d="m 68.1962,212.2523 723.2184,0 0,-50.4232 -723.2184,0 0,50.4232 z"
       style="fill:#ffffff;fill-opacity:1;fill-rule:evenodd;stroke:#231f20;stroke-width:2.83459997;stroke-linecap:butt;stroke-linejoin:miter;stroke-miterlimit:22.92558479;stroke-dasharray:none;stroke-opacity:1"
       id="path12"
       inkscape:connector-curvature="0" /><path
       d="m 311.1097,212.2523 0,-50.4232"
       style="fill:none;stroke:#231f20;stroke-width:2.83459997;stroke-linecap:butt;stroke-linejoin:miter;stroke-miterlimit:22.92558479;stroke-dasharray:none;stroke-opacity:1"
       id="path14"
       inkscape:connector-curvature="0" /><path
       d="m 554.6256,212.2523 0,-50.4232"
       style="fill:none;stroke:#231f20;stroke-width:2.83459997;stroke-linecap:butt;stroke-linejoin:miter;stroke-miterlimit:22.92558479;stroke-dasharray:none;stroke-opacity:1"
       id="path16"
       inkscape:connector-curvature="0" /><text
       transform="scale(1,-1)"
       style="font-variant:normal;font-weight:normal;font-size:18px;font-family:Arial;-inkscape-font-specification:ArialMT;writing-mode:lr-tb;fill:#231f20;fill-opacity:1;fill-rule:nonzero;stroke:none"
       id="text26"
       x="657.26575"
       y="-184.69701"><tspan
         sodipodi:role="line"
         id="tspan28"
         x="657.26575"
         y="-184.69701">&gt;99999</tspan></text>
<path
       d="m 299.7343,221.5191 0,62.8911 2.8233,0 0,-62.8911 -2.8233,0 z m 1.4117,-9.9324 -8.47,19.7632 0.5293,-0.2565 0.5295,-0.2399 0.5292,-0.2233 0.5295,-0.2067 0.5292,-0.1902 0.5296,-0.1737 0.5292,-0.1571 0.5295,-0.1406 0.5292,-0.1241 0.5295,-0.1075 0.5293,-0.091 0.5295,-0.0745 0.5292,-0.0578 0.5295,-0.0414 0.5292,-0.025 0.5296,-0.008 0.5295,0.008 0.5292,0.025 0.5295,0.0414 0.5292,0.0578 0.5295,0.0745 0.5293,0.091 0.5295,0.1075 0.5292,0.1241 0.5295,0.1406 0.5293,0.1571 0.5295,0.1737 0.5292,0.1902 0.5295,0.2067 0.5292,0.2233 0.5295,0.2399 0.5293,0.2565 0,0 -8.4699,-19.7632 z"
       style="fill:#231f20;fill-opacity:1;fill-rule:nonzero;stroke:none"
       id="path30"
       inkscape:connector-curvature="0" /><path
       d="m 318.6357,220.2267 0,43.9098 2.8347,0 0,-43.9098 -2.8347,0 z m 1.4173,-9.9722 -8.5039,19.8425 0.5315,-0.2574 0.5315,-0.241 0.5315,-0.2242 0.5315,-0.2075 0.5315,-0.191 0.5315,-0.1744 0.5315,-0.1578 0.5315,-0.1412 0.5315,-0.1245 0.5315,-0.108 0.5315,-0.0915 0.5315,-0.0746 0.5315,-0.0581 0.5314,-0.0416 0.5315,-0.025 0.5315,-0.008 0.5315,0.008 0.5315,0.025 0.5315,0.0416 0.5315,0.0581 0.5315,0.0746 0.5315,0.0915 0.5315,0.108 0.5315,0.1245 0.5315,0.1412 0.5315,0.1578 0.5315,0.1744 0.5315,0.191 0.5315,0.2075 0.5315,0.2242 0.5315,0.241 0.5315,0.2574 0,0 -8.504,-19.8425 z"
       style="fill:#231f20;fill-opacity:1;fill-rule:nonzero;stroke:none"
       id="path32"
       inkscape:connector-curvature="0" /><path
       d="m 430.8432,222.6614 0,43.9098 2.8346,0 0,-43.9098 -2.8346,0 z m 1.4173,-9.9723 -8.5039,19.8426 0.5315,-0.2574 0.5315,-0.241 0.5315,-0.2242 0.5315,-0.2075 0.5314,-0.191 0.5315,-0.1744 0.5315,-0.1579 0.5315,-0.1411 0.5315,-0.1245 0.5315,-0.108 0.5315,-0.0915 0.5315,-0.0746 0.5315,-0.0581 0.5315,-0.0417 0.5315,-0.0249 0.5315,-0.008 0.5315,0.008 0.5315,0.0249 0.5315,0.0417 0.5315,0.0581 0.5315,0.0746 0.5315,0.0915 0.5315,0.108 0.5315,0.1245 0.5315,0.1411 0.5315,0.1579 0.5315,0.1744 0.5315,0.191 0.5315,0.2075 0.5314,0.2242 0.5315,0.241 0.5315,0.2574 0,0 -8.5039,-19.8426 z"
       style="fill:#231f20;fill-opacity:1;fill-rule:nonzero;stroke:none"
       id="path34"
       inkscape:connector-curvature="0" /><path
       d="m 541.0097,223.0551 0,43.9098 2.8346,0 0,-43.9098 -2.8346,0 z m 1.4173,-9.9722 -8.5039,19.8425 0.5315,-0.2574 0.5315,-0.2409 0.5315,-0.2243 0.5315,-0.2075 0.5315,-0.191 0.5315,-0.1743 0.5315,-0.1579 0.5315,-0.1412 0.5315,-0.1244 0.5314,-0.108 0.5315,-0.0916 0.5315,-0.0746 0.5315,-0.0581 0.5315,-0.0416 0.5315,-0.025 0.5315,-0.008 0.5315,0.008 0.5315,0.025 0.5315,0.0416 0.5315,0.0581 0.5315,0.0746 0.5315,0.0916 0.5315,0.108 0.5315,0.1244 0.5315,0.1412 0.5315,0.1579 0.5315,0.1743 0.5315,0.191 0.5315,0.2075 0.5315,0.2243 0.5315,0.2409 0.5315,0.2574 0,0 -8.504,-19.8425 z"
       style="fill:#231f20;fill-opacity:1;fill-rule:nonzero;stroke:none"
       id="path36"
       inkscape:connector-curvature="0" /><path
       d="m 562.7302,221.7498 0,62.6604 2.8346,0 0,-62.6604 -2.8346,0 z m 1.4173,-9.9723 -8.5039,19.8425 0.5315,-0.2574 0.5315,-0.2409 0.5314,-0.2242 0.5315,-0.2075 0.5315,-0.1911 0.5315,-0.1743 0.5315,-0.1579 0.5315,-0.1412 0.5315,-0.1244 0.5315,-0.108 0.5315,-0.0916 0.5315,-0.0745 0.5315,-0.0581 0.5315,-0.0417 0.5315,-0.0249 0.5315,-0.008 0.5315,0.008 0.5315,0.0249 0.5315,0.0417 0.5315,0.0581 0.5315,0.0745 0.5315,0.0916 0.5315,0.108 0.5315,0.1244 0.5315,0.1412 0.5315,0.1579 0.5315,0.1743 0.5314,0.1911 0.5315,0.2075 0.5315,0.2242 0.5315,0.2409 0.5315,0.2574 0,0 -8.5039,-19.8425 z"
       style="fill:#231f20;fill-opacity:1;fill-rule:nonzero;stroke:none"
       id="path38"
       inkscape:connector-curvature="0" /><text
       transform="matrix(1,0,0,-1,408.6992,276.791)"
       style="font-variant:normal;font-weight:normal;font-size:18px;font-family:Arial;-inkscape-font-specification:ArialMT;writing-mode:lr-tb;fill:#231f20;fill-opacity:1;fill-rule:nonzero;stroke:none"
       id="text40"><tspan
         x="0 10.008 20.016001 30.024 40.032001"
         y="0"
         sodipodi:role="line"
         id="tspan42">50000</tspan></text>
<text
       transform="matrix(1,0,0,-1,502.8891,272.5985)"
       style="font-variant:normal;font-weight:normal;font-size:18px;font-family:Arial;-inkscape-font-specification:ArialMT;writing-mode:lr-tb;fill:#231f20;fill-opacity:1;fill-rule:nonzero;stroke:none"
       id="text44"><tspan
         x="0 10.008 20.016001 30.024 40.032001"
         y="0"
         sodipodi:role="line"
         id="tspan46">99999</tspan></text>
<text
       transform="matrix(1,0,0,-1,557.4917,288.7903)"
       style="font-variant:normal;font-weight:normal;font-size:18px;font-family:Arial;-inkscape-font-specification:ArialMT;writing-mode:lr-tb;fill:#231f20;fill-opacity:1;fill-rule:nonzero;stroke:none"
       id="text48"><tspan
         x="0 10.008 20.016001 30.024 40.032001 50.040001"
         y="0"
         sodipodi:role="line"
         id="tspan50">100000</tspan></text>
<text
       transform="matrix(1,0,0,-1,308.1804,266.8175)"
       style="font-variant:normal;font-weight:normal;font-size:18px;font-family:Arial;-inkscape-font-specification:ArialMT;writing-mode:lr-tb;fill:#231f20;fill-opacity:1;fill-rule:nonzero;stroke:none"
       id="text52"><tspan
         x="0 10.008 20.016001 30.024 40.032001"
         y="0"
         sodipodi:role="line"
         id="tspan54">10000</tspan></text>
<text
       transform="matrix(1,0,0,-1,265.7429,285.749)"
       style="font-variant:normal;font-weight:normal;font-size:18px;font-family:Arial;-inkscape-font-specification:ArialMT;writing-mode:lr-tb;fill:#231f20;fill-opacity:1;fill-rule:nonzero;stroke:none"
       id="text56"><tspan
         x="0 10.008 20.016001 30.024"
         y="0"
         sodipodi:role="line"
         id="tspan58">9999</tspan></text>
<text
       transform="matrix(1,0,0,-1,72.0811,133.9965)"
       style="font-variant:normal;font-weight:normal;font-size:18px;font-family:Arial;-inkscape-font-specification:ArialMT;writing-mode:lr-tb;fill:#231f20;fill-opacity:1;fill-rule:nonzero;stroke:none"
       id="text60"><tspan
         sodipodi:role="line"
         id="tspan62"
         x="0"
         y="0"
         style="opacity:1">Input with three equivalence classes.</tspan></text>
<path
       d="m 201.507,222.9851 0,62.8912 2.8233,0 0,-62.8912 -2.8233,0 z m 1.4117,-9.9323 -8.4699,19.7632 0.5292,-0.2566 0.5295,-0.2398 0.5292,-0.2233 0.5295,-0.2067 0.5293,-0.1902 0.5295,-0.1738 0.5292,-0.157 0.5295,-0.1406 0.5292,-0.1242 0.5296,-0.1074 0.5292,-0.091 0.5295,-0.0745 0.5292,-0.0579 0.5295,-0.0413 0.5293,-0.025 0.5295,-0.008 0.5295,0.008 0.5292,0.025 0.5295,0.0413 0.5293,0.0579 0.5295,0.0745 0.5292,0.091 0.5295,0.1074 0.5292,0.1242 0.5295,0.1406 0.5293,0.157 0.5295,0.1738 0.5292,0.1902 0.5295,0.2067 0.5293,0.2233 0.5295,0.2398 0.5292,0.2566 0,0 -8.4699,-19.7632 z"
       style="fill:#231f20;fill-opacity:1;fill-rule:nonzero;stroke:none"
       id="path64"
       inkscape:connector-curvature="0" /><text
       transform="scale(1,-1)"
       style="font-variant:normal;font-weight:normal;font-size:18px;font-family:Arial;-inkscape-font-specification:ArialMT;writing-mode:lr-tb;fill:#231f20;fill-opacity:1;fill-rule:nonzero;stroke:none"
       id="text66"
       x="182.95845"
       y="-287.21509"><tspan
         sodipodi:role="line"
         id="tspan68"
         x="182.95845"
         y="-287.21509">5000</tspan></text>
<path
       d="m 67.0666,221.5191 0,62.8911 2.8233,0 0,-62.8911 -2.8233,0 z m 1.4116,-9.9324 -8.4699,19.7632 0.5292,-0.2565 0.5296,-0.2399 0.5292,-0.2233 0.5295,-0.2067 0.5292,-0.1902 0.5295,-0.1737 0.5293,-0.1571 0.5295,-0.1406 0.5292,-0.1241 0.5295,-0.1075 0.5292,-0.091 0.5296,-0.0745 0.5292,-0.0578 0.5295,-0.0414 0.5292,-0.025 0.5295,-0.008 0.5295,0.008 0.5293,0.025 0.5295,0.0414 0.5292,0.0578 0.5295,0.0745 0.5293,0.091 0.5295,0.1075 0.5292,0.1241 0.5295,0.1406 0.5292,0.1571 0.5295,0.1737 0.5293,0.1902 0.5295,0.2067 0.5292,0.2233 0.5295,0.2399 0.5293,0.2565 0,0 -8.47,-19.7632 z"
       style="fill:#231f20;fill-opacity:1;fill-rule:nonzero;stroke:none"
       id="path70"
       inkscape:connector-curvature="0" /><text
       transform="matrix(1,0,0,-1,63.0992,285.749)"
       style="font-variant:normal;font-weight:normal;font-size:18px;font-family:Arial;-inkscape-font-specification:ArialMT;writing-mode:lr-tb;fill:#231f20;fill-opacity:1;fill-rule:nonzero;stroke:none"
       id="text72"><tspan
         x="0"
         y="0"
         id="tspan74">0</tspan></text>
<path
       d="m 789.5611,221.5191 0,62.8911 2.8233,0 0,-62.8911 -2.8233,0 z m 1.4116,-9.9324 -8.4699,19.7632 0.5292,-0.2565 0.5295,-0.2399 0.5293,-0.2233 0.5295,-0.2067 0.5292,-0.1902 0.5295,-0.1737 0.5293,-0.1571 0.5295,-0.1406 0.5292,-0.1241 0.5295,-0.1075 0.5292,-0.091 0.5295,-0.0745 0.5293,-0.0578 0.5295,-0.0414 0.5292,-0.025 0.5295,-0.008 0.5295,0.008 0.5293,0.025 0.5295,0.0414 0.5292,0.0578 0.5295,0.0745 0.5292,0.091 0.5296,0.1075 0.5292,0.1241 0.5295,0.1406 0.5292,0.1571 0.5295,0.1737 0.5293,0.1902 0.5295,0.2067 0.5292,0.2233 0.5295,0.2399 0.5292,0.2565 0,0 -8.4699,-19.7632 z"
       style="fill:#231f20;fill-opacity:1;fill-rule:nonzero;stroke:none"
       id="path76"
       inkscape:connector-curvature="0" /><text
       transform="matrix(1,0,0,-1,755.5697,285.749)"
       style="font-variant:normal;font-weight:normal;font-size:18px;font-family:Arial;-inkscape-font-specification:ArialMT;writing-mode:lr-tb;fill:#231f20;fill-opacity:1;fill-rule:nonzero;stroke:none"
       id="text78"><tspan
         x="0 14.994 27 39.006001 44.009998 57.006001"
         y="0"
         sodipodi:role="line"
         id="tspan80">MAXINT</tspan></text>
<path
       d="m 679.8385,222.6614 0,43.9098 2.8346,0 0,-43.9098 -2.8346,0 z m 1.4173,-9.9723 -8.504,19.8426 0.5315,-0.2574 0.5315,-0.241 0.5315,-0.2242 0.5315,-0.2075 0.5315,-0.191 0.5315,-0.1744 0.5315,-0.1579 0.5315,-0.1411 0.5315,-0.1245 0.5315,-0.108 0.5315,-0.0915 0.5315,-0.0746 0.5315,-0.0581 0.5315,-0.0417 0.5315,-0.0249 0.5315,-0.008 0.5315,0.008 0.5315,0.0249 0.5315,0.0417 0.5315,0.0581 0.5315,0.0746 0.5315,0.0915 0.5315,0.108 0.5314,0.1245 0.5315,0.1411 0.5315,0.1579 0.5315,0.1744 0.5315,0.191 0.5315,0.2075 0.5315,0.2242 0.5315,0.241 0.5315,0.2574 0,0 -8.5039,-19.8426 z"
       style="fill:#231f20;fill-opacity:1;fill-rule:nonzero;stroke:none"
       id="path82"
       inkscape:connector-curvature="0" /><text
       transform="matrix(1,0,0,-1,657.6945,276.791)"
       style="font-variant:normal;font-weight:normal;font-size:18px;font-family:Arial;-inkscape-font-specification:ArialMT;writing-mode:lr-tb;fill:#231f20;fill-opacity:1;fill-rule:nonzero;stroke:none"
       id="text84"><tspan
         x="0 10.008 20.016001 30.024 40.032001 50.040001"
         y="0"
         sodipodi:role="line"
         id="tspan86">500000</tspan></text>
<text
       id="text4214"
       style="font-variant:normal;font-weight:normal;font-size:18px;font-family:Arial;-inkscape-font-specification:ArialMT;writing-mode:lr-tb;fill:#231f20;fill-opacity:1;fill-rule:nonzero;stroke:none"
       transform="scale(1,-1)"
       x="172.55688"
       y="-181.55991"><tspan
         id="tspan4216"
         sodipodi:role="line"
         x="172.55688"
         y="-181.55991">&lt;10000</tspan></text>
<text
       id="text4218"
       style="font-variant:normal;font-weight:normal;font-size:18px;font-family:Arial;-inkscape-font-specification:ArialMT;writing-mode:lr-tb;fill:#231f20;fill-opacity:1;fill-rule:nonzero;stroke:none"
       transform="scale(1,-1)"
       x="374.98767"
       y="-184.69701"><tspan
         id="tspan4220"
         sodipodi:role="line"
         x="374.98767"
         y="-184.69701">10000 - 99999</tspan></text>
</g></svg>