<?xml version="1.0" encoding="UTF-8" standalone="no"?>
<!-- Created with Inkscape (http://www.inkscape.org/) -->

<svg
   xmlns:dc="http://purl.org/dc/elements/1.1/"
   xmlns:cc="http://creativecommons.org/ns#"
   xmlns:rdf="http://www.w3.org/1999/02/22-rdf-syntax-ns#"
   xmlns:svg="http://www.w3.org/2000/svg"
   xmlns="http://www.w3.org/2000/svg"
   xmlns:sodipodi="http://sodipodi.sourceforge.net/DTD/sodipodi-0.dtd"
   xmlns:inkscape="http://www.inkscape.org/namespaces/inkscape"
   id="svg2"
   version="1.1"
   inkscape:version="0.91 r13725"
   xml:space="preserve"
   width="287.46625"
   height="232.98849"
   viewBox="0 0 287.46625 232.98849"
   sodipodi:docname="BlackBoxAndWhiteBoxTesting.svg"><metadata
     id="metadata8"><rdf:RDF><cc:Work
         rdf:about=""><dc:format>image/svg+xml</dc:format><dc:type
           rdf:resource="http://purl.org/dc/dcmitype/StillImage" /><dc:title></dc:title></cc:Work></rdf:RDF></metadata><defs
     id="defs6" /><sodipodi:namedview
     pagecolor="#ffffff"
     bordercolor="#666666"
     borderopacity="1"
     objecttolerance="10"
     gridtolerance="10"
     guidetolerance="10"
     inkscape:pageopacity="0"
     inkscape:pageshadow="2"
     inkscape:window-width="2560"
     inkscape:window-height="1387"
     id="namedview4"
     showgrid="false"
     inkscape:zoom="3.7026303"
     inkscape:cx="77.344177"
     inkscape:cy="105.73609"
     inkscape:window-x="-8"
     inkscape:window-y="-8"
     inkscape:window-maximized="1"
     inkscape:current-layer="g10" /><g
     id="g10"
     inkscape:groupmode="layer"
     inkscape:label="BlackBoxAndWhiteBoxTesting"
     transform="matrix(1.25,0,0,-1.25,0,232.98849)"><text
       id="text14"
       style="font-variant:normal;font-weight:normal;font-size:12.80000019px;font-family:Arial;-inkscape-font-specification:ArialMT;writing-mode:lr-tb;fill:#000000;fill-opacity:1;fill-rule:nonzero;stroke:none"
       transform="scale(1,-1)"
       x="-0.9375"
       y="-0.149996"><tspan
         id="tspan16"
         sodipodi:role="line"
         x="-0.9375"
         y="-0.149996">Blackbox Test</tspan></text>
<g
       transform="matrix(1,0,0,-1,0,186.39079)"
       id="g18"><path
         inkscape:connector-curvature="0"
         id="path20"
         style="fill:#4d4d4d;fill-opacity:1;fill-rule:nonzero;stroke:#000000;stroke-width:0.80000001;stroke-linecap:round;stroke-linejoin:round;stroke-miterlimit:2;stroke-dasharray:none;stroke-opacity:1"
         d="m 21.723,52.469 43.769,0 0,45.121 -7.742,7.5 -36.027,-7.5 -7.785,-37.598 7.785,-7.523 z" /></g><g
       transform="matrix(1,0,0,-1,0,186.39079)"
       id="g22"><path
         inkscape:connector-curvature="0"
         id="path24"
         style="fill:#4d4d4d;fill-opacity:1;fill-rule:nonzero;stroke:#000000;stroke-width:0.80000001;stroke-linecap:round;stroke-linejoin:round;stroke-miterlimit:2;stroke-dasharray:none;stroke-opacity:1"
         d="m 13.844,60.105 43.773,0 0,45.125 -43.773,0 0,-45.125 z" /></g><text
       id="text26"
       style="font-variant:normal;font-weight:normal;font-size:40px;font-family:Arial;-inkscape-font-specification:ArialMT;writing-mode:lr-tb;fill:#f9f9f9;fill-opacity:1;fill-rule:nonzero;stroke:none"
       transform="scale(1,-1)"
       x="23.535454"
       y="-88.733688"><tspan
         id="tspan28"
         y="-88.733688"
         x="23.535454">?</tspan></text>
<g
       transform="matrix(1,0,0,-1,0,186.39079)"
       id="g30"><path
         inkscape:connector-curvature="0"
         id="path32"
         style="fill:none;stroke:#000000;stroke-width:0.80000001;stroke-linecap:butt;stroke-linejoin:miter;stroke-miterlimit:4;stroke-dasharray:none;stroke-opacity:1"
         d="m 13.914,60.184 8,-7.715" /></g><g
       transform="matrix(1,0,0,-1,0,186.39079)"
       id="g34"><path
         inkscape:connector-curvature="0"
         id="path36"
         style="fill:none;stroke:#000000;stroke-width:0.80000001;stroke-linecap:butt;stroke-linejoin:miter;stroke-miterlimit:4;stroke-dasharray:none;stroke-opacity:1"
         d="m 57.27,60.184 8.214,-7.856" /></g><g
       transform="matrix(1,0,0,-1,0,186.39079)"
       id="g38"><path
         inkscape:connector-curvature="0"
         id="path40"
         style="fill:none;stroke:#000000;stroke-width:0.80000001;stroke-linecap:butt;stroke-linejoin:miter;stroke-miterlimit:4;stroke-dasharray:none;stroke-opacity:1"
         d="m 65.555,97.539 -7.926,7.789" /></g><text
       y="-180.66423"
       x="18.070532"
       id="text42"
       style="font-variant:normal;font-weight:normal;font-size:8px;font-family:Arial;-inkscape-font-specification:ArialMT;writing-mode:lr-tb;fill:#000000;fill-opacity:1;fill-rule:nonzero;stroke:none"
       transform="scale(1,-1)"><tspan
         y="-180.66423"
         x="18.070532"
         id="tspan46"
         sodipodi:role="line">known input</tspan></text>
<g
       transform="matrix(1,0,0,-1,0,186.39079)"
       id="g48"><path
         inkscape:connector-curvature="0"
         id="path50"
         style="fill:none;stroke:#000000;stroke-width:2.4000001;stroke-linecap:butt;stroke-linejoin:miter;stroke-miterlimit:4;stroke-dasharray:none;stroke-opacity:1"
         d="m 39.676,108.191 0,32.438" /></g><path
       inkscape:connector-curvature="0"
       id="path52"
       style="fill:#000000;fill-opacity:1;fill-rule:evenodd;stroke:none"
       d="M 45.484,58.317 39.699,42.582 33.914,58.317 c 3.418,-2.512 8.09,-2.5 11.57,0 z" /><g
       transform="matrix(1,0,0,-1,0,186.39079)"
       id="g54"><path
         inkscape:connector-curvature="0"
         id="path56"
         style="fill:none;stroke:#000000;stroke-width:2.4000001;stroke-linecap:butt;stroke-linejoin:miter;stroke-miterlimit:4;stroke-dasharray:none;stroke-opacity:1"
         d="m 39.676,10.594 0,32.433" /></g><path
       inkscape:connector-curvature="0"
       id="path58"
       style="fill:#000000;fill-opacity:1;fill-rule:evenodd;stroke:none"
       d="m 45.484,155.918 -5.785,-15.734 -5.785,15.734 c 3.418,-2.515 8.09,-2.5 11.57,0 z" /><text
       id="text60"
       style="font-variant:normal;font-weight:normal;font-size:12.80000019px;font-family:Arial;-inkscape-font-specification:ArialMT;writing-mode:lr-tb;fill:#000000;fill-opacity:1;fill-rule:nonzero;stroke:none"
       transform="scale(1,-1)"
       x="148.23549"
       y="-0.149996"><tspan
         id="tspan62"
         sodipodi:role="line"
         x="148.23549"
         y="-0.149996">Whitebox Test</tspan></text>
<g
       transform="matrix(1,0,0,-1,0,186.39079)"
       id="g64"><path
         inkscape:connector-curvature="0"
         id="path66"
         style="fill:#e6e6e6;fill-opacity:1;fill-rule:nonzero;stroke:#000000;stroke-width:0.80000001;stroke-linecap:round;stroke-linejoin:round;stroke-miterlimit:2;stroke-dasharray:none;stroke-opacity:1"
         d="m 171.203,52.469 43.774,0 0,45.121 -7.743,7.5 -36.031,-7.5 -7.785,-37.598 7.785,-7.523 z" /></g><g
       transform="matrix(1,0,0,-1,0,186.39079)"
       id="g68"><path
         inkscape:connector-curvature="0"
         id="path70"
         style="fill:#e6e6e6;fill-opacity:1;fill-rule:nonzero;stroke:#000000;stroke-width:0.80000001;stroke-linecap:round;stroke-linejoin:round;stroke-miterlimit:2;stroke-dasharray:none;stroke-opacity:1"
         d="m 163.328,60.105 43.77,0 0,45.125 -43.77,0 0,-45.125 z" /></g><g
       transform="matrix(1,0,0,-1,0,186.39079)"
       id="g72"><path
         inkscape:connector-curvature="0"
         id="path74"
         style="fill:none;stroke:#000000;stroke-width:0.80000001;stroke-linecap:butt;stroke-linejoin:miter;stroke-miterlimit:4;stroke-dasharray:none;stroke-opacity:1"
         d="m 163.395,60.184 8,-7.715" /></g><g
       transform="matrix(1,0,0,-1,0,186.39079)"
       id="g76"><path
         inkscape:connector-curvature="0"
         id="path78"
         style="fill:none;stroke:#000000;stroke-width:0.80000001;stroke-linecap:butt;stroke-linejoin:miter;stroke-miterlimit:4;stroke-dasharray:none;stroke-opacity:1"
         d="m 206.754,60.184 8.211,-7.856" /></g><g
       transform="matrix(1,0,0,-1,0,186.39079)"
       id="g80"><path
         inkscape:connector-curvature="0"
         id="path82"
         style="fill:none;stroke:#000000;stroke-width:0.80000001;stroke-linecap:butt;stroke-linejoin:miter;stroke-miterlimit:4;stroke-dasharray:none;stroke-opacity:1"
         d="m 215.039,97.539 -7.93,7.789" /></g><g
       transform="matrix(1,0,0,-1,0,186.39079)"
       id="g84"><path
         inkscape:connector-curvature="0"
         id="path86"
         style="fill:#e6e6e6;fill-opacity:1;fill-rule:nonzero;stroke:#000000;stroke-width:0.47999999;stroke-linecap:round;stroke-linejoin:round;stroke-miterlimit:2;stroke-dasharray:none;stroke-opacity:1"
         d="m 168.355,65.613 11.355,0 0,6.215 -11.355,0 0,-6.215 z" /></g><g
       transform="matrix(1,0,0,-1,0,186.39079)"
       id="g88"><path
         inkscape:connector-curvature="0"
         id="path90"
         style="fill:#e6e6e6;fill-opacity:1;fill-rule:nonzero;stroke:#000000;stroke-width:0.47999999;stroke-linecap:round;stroke-linejoin:round;stroke-miterlimit:2;stroke-dasharray:none;stroke-opacity:1"
         d="m 191.246,70.004 11.359,0 0,6.215 -11.359,0 0,-6.215 z" /></g><g
       transform="matrix(1,0,0,-1,0,186.39079)"
       id="g92"><path
         inkscape:connector-curvature="0"
         id="path94"
         style="fill:#e6e6e6;fill-opacity:1;fill-rule:nonzero;stroke:#000000;stroke-width:0.47999999;stroke-linecap:round;stroke-linejoin:round;stroke-miterlimit:2;stroke-dasharray:none;stroke-opacity:1"
         d="m 171.031,78.305 11.359,0 0,6.215 -11.359,0 0,-6.215 z" /></g><g
       transform="matrix(1,0,0,-1,0,186.39079)"
       id="g96"><path
         inkscape:connector-curvature="0"
         id="path98"
         style="fill:#e6e6e6;fill-opacity:1;fill-rule:nonzero;stroke:#000000;stroke-width:0.47999999;stroke-linecap:round;stroke-linejoin:round;stroke-miterlimit:2;stroke-dasharray:none;stroke-opacity:1"
         d="m 187.891,85.789 11.355,0 0,6.215 -11.355,0 0,-6.215 z" /></g><g
       transform="matrix(1,0,0,-1,0,186.39079)"
       id="g100"><path
         inkscape:connector-curvature="0"
         id="path102"
         style="fill:#e6e6e6;fill-opacity:1;fill-rule:nonzero;stroke:#000000;stroke-width:0.47999999;stroke-linecap:round;stroke-linejoin:round;stroke-miterlimit:2;stroke-dasharray:none;stroke-opacity:1"
         d="m 172.246,92.148 11.359,0 0,6.215 -11.359,0 0,-6.215 z" /></g><g
       transform="matrix(1,0,0,-1,0,186.39079)"
       id="g104"><path
         inkscape:connector-curvature="0"
         id="path106"
         style="fill:none;stroke:#000000;stroke-width:0.31999999;stroke-linecap:butt;stroke-linejoin:miter;stroke-miterlimit:4;stroke-dasharray:none;stroke-opacity:1"
         d="m 179.809,68.949 10.671,4.133" /></g><path
       inkscape:connector-curvature="0"
       id="path108"
       style="fill:#000000;fill-opacity:1;fill-rule:evenodd;stroke:none"
       d="m 189.199,114.633 1.676,-1.477 -2.234,0.039 c 0.476,0.305 0.699,0.887 0.558,1.438 z" /><g
       transform="matrix(1,0,0,-1,0,186.39079)"
       id="g110"><path
         inkscape:connector-curvature="0"
         id="path112"
         style="fill:none;stroke:#000000;stroke-width:0.31999999;stroke-linecap:butt;stroke-linejoin:miter;stroke-miterlimit:4;stroke-dasharray:none;stroke-opacity:1"
         d="m 174.113,71.902 1.922,5.598" /></g><path
       inkscape:connector-curvature="0"
       id="path114"
       style="fill:#000000;fill-opacity:1;fill-rule:evenodd;stroke:none"
       d="m 176.223,110.727 -0.047,-2.235 -1.41,1.735 c 0.539,-0.172 1.129,0.031 1.457,0.5 z" /><g
       transform="matrix(1,0,0,-1,0,186.39079)"
       id="g116"><path
         inkscape:connector-curvature="0"
         id="path118"
         style="fill:none;stroke:#000000;stroke-width:0.31999999;stroke-linecap:butt;stroke-linejoin:miter;stroke-miterlimit:4;stroke-dasharray:none;stroke-opacity:1"
         d="m 196.371,76.266 -2.726,8.535" /></g><path
       inkscape:connector-curvature="0"
       id="path120"
       style="fill:#000000;fill-opacity:1;fill-rule:evenodd;stroke:none"
       d="m 194.891,102.949 -1.375,-1.765 -0.094,2.234 c 0.332,-0.457 0.926,-0.644 1.469,-0.469 z" /><g
       transform="matrix(1,0,0,-1,0,186.39079)"
       id="g122"><path
         inkscape:connector-curvature="0"
         id="path124"
         style="fill:none;stroke:#000000;stroke-width:0.31999999;stroke-linecap:butt;stroke-linejoin:miter;stroke-miterlimit:4;stroke-dasharray:none;stroke-opacity:1"
         d="m 176.25,85.078 1.105,6.313" /></g><path
       inkscape:connector-curvature="0"
       id="path126"
       style="fill:#000000;fill-opacity:1;fill-rule:evenodd;stroke:none"
       d="m 177.828,96.781 -0.398,-2.199 -1.121,1.934 c 0.507,-0.254 1.121,-0.145 1.519,0.265 z" /><g
       transform="matrix(1,0,0,-1,0,186.39079)"
       id="g128"><path
         inkscape:connector-curvature="0"
         id="path130"
         style="fill:none;stroke:#000000;stroke-width:0.31999999;stroke-linecap:butt;stroke-linejoin:miter;stroke-miterlimit:4;stroke-dasharray:none;stroke-opacity:1"
         d="m 182.414,81.469 4.609,3.636" /></g><path
       inkscape:connector-curvature="0"
       id="path132"
       style="fill:#000000;fill-opacity:1;fill-rule:evenodd;stroke:none"
       d="m 186.191,102.93 1.168,-1.906 -2.125,0.695 c 0.547,0.148 0.93,0.641 0.957,1.211 z" /><g
       transform="matrix(1,0,0,-1,0,186.39079)"
       id="g140"><path
         inkscape:connector-curvature="0"
         id="path142"
         style="fill:none;stroke:#000000;stroke-width:2.4000001;stroke-linecap:butt;stroke-linejoin:miter;stroke-miterlimit:4;stroke-dasharray:none;stroke-opacity:1"
         d="m 189.16,108.191 0,32.438" /></g><path
       inkscape:connector-curvature="0"
       id="path144"
       style="fill:#000000;fill-opacity:1;fill-rule:evenodd;stroke:none"
       d="m 194.969,58.317 -5.785,-15.735 -5.786,15.735 c 3.415,-2.512 8.086,-2.5 11.571,0 z" /><g
       transform="matrix(1,0,0,-1,0,186.39079)"
       id="g146"><path
         inkscape:connector-curvature="0"
         id="path148"
         style="fill:none;stroke:#000000;stroke-width:2.4000001;stroke-linecap:butt;stroke-linejoin:miter;stroke-miterlimit:4;stroke-dasharray:none;stroke-opacity:1"
         d="m 189.16,10.594 0,32.433" /></g><path
       inkscape:connector-curvature="0"
       id="path150"
       style="fill:#000000;fill-opacity:1;fill-rule:evenodd;stroke:none"
       d="m 194.969,155.918 -5.785,-15.734 -5.786,15.734 c 3.415,-2.515 8.086,-2.5 11.571,0 z" /><text
       y="-33.910294"
       x="16.734594"
       transform="scale(1,-1)"
       style="font-variant:normal;font-weight:normal;font-size:8px;font-family:Arial;-inkscape-font-specification:ArialMT;writing-mode:lr-tb;fill:#000000;fill-opacity:1;fill-rule:nonzero;stroke:none"
       id="text4282"><tspan
         sodipodi:role="line"
         id="tspan4284"
         x="16.734594"
         y="-33.910294">known ouput</tspan></text>
<text
       transform="scale(1,-1)"
       style="font-variant:normal;font-weight:normal;font-size:8px;font-family:Arial;-inkscape-font-specification:ArialMT;writing-mode:lr-tb;fill:#000000;fill-opacity:1;fill-rule:nonzero;stroke:none"
       id="text4286"
       x="167.55453"
       y="-180.66423"><tspan
         sodipodi:role="line"
         id="tspan4288"
         x="167.55453"
         y="-180.66423">known input</tspan></text>
<text
       id="text4290"
       style="font-variant:normal;font-weight:normal;font-size:8px;font-family:Arial;-inkscape-font-specification:ArialMT;writing-mode:lr-tb;fill:#000000;fill-opacity:1;fill-rule:nonzero;stroke:none"
       transform="scale(1,-1)"
       x="166.2186"
       y="-33.910294"><tspan
         y="-33.910294"
         x="166.2186"
         id="tspan4292"
         sodipodi:role="line">known ouput</tspan></text>
</g></svg>