<?xml version="1.0" encoding="UTF-8" standalone="no"?>
<!-- Created with Inkscape (http://www.inkscape.org/) -->

<svg
   xmlns:dc="http://purl.org/dc/elements/1.1/"
   xmlns:cc="http://creativecommons.org/ns#"
   xmlns:rdf="http://www.w3.org/1999/02/22-rdf-syntax-ns#"
   xmlns:svg="http://www.w3.org/2000/svg"
   xmlns="http://www.w3.org/2000/svg"
   xmlns:sodipodi="http://sodipodi.sourceforge.net/DTD/sodipodi-0.dtd"
   xmlns:inkscape="http://www.inkscape.org/namespaces/inkscape"
   id="svg2"
   version="1.1"
   inkscape:version="0.91 r13725"
   xml:space="preserve"
   width="1007.484"
   height="301.63"
   viewBox="0 0 1007.484 301.63"
   sodipodi:docname="Inkrementelles_Testen.svg"><metadata
     id="metadata8"><rdf:RDF><cc:Work
         rdf:about=""><dc:format>image/svg+xml</dc:format><dc:type
           rdf:resource="http://purl.org/dc/dcmitype/StillImage" /><dc:title /></cc:Work></rdf:RDF></metadata><defs
     id="defs6" /><sodipodi:namedview
     pagecolor="#ffffff"
     bordercolor="#666666"
     borderopacity="1"
     objecttolerance="10"
     gridtolerance="10"
     guidetolerance="10"
     inkscape:pageopacity="0"
     inkscape:pageshadow="2"
     inkscape:window-width="2560"
     inkscape:window-height="1387"
     id="namedview4"
     showgrid="false"
     inkscape:zoom="1.1099203"
     inkscape:cx="237.48015"
     inkscape:cy="10.987944"
     inkscape:window-x="-8"
     inkscape:window-y="-8"
     inkscape:window-maximized="1"
     inkscape:current-layer="g10" /><g
     id="g10"
     inkscape:groupmode="layer"
     inkscape:label="Inkrementelles_Testen"
     transform="matrix(1.25,0,0,-1.25,-36.141,600.38)"><g
       id="g12"
       transform="translate(84.2933,446.7152)"><path
         d="m 0,0 135.09,0 c 12.588,0 22.888,-10.299 22.888,-22.888 l 0,-49.59 c 0,-12.588 -10.3,-22.888 -22.888,-22.888 l -135.09,0 c -12.589,0 -22.888,10.3 -22.888,22.888 l 0,49.59 C -22.888,-10.299 -12.589,0 0,0 Z"
         style="fill:none;stroke:#231f20;stroke-width:2.83500004;stroke-linecap:butt;stroke-linejoin:miter;stroke-miterlimit:22.9260006;stroke-dasharray:none;stroke-opacity:1"
         id="path14"
         inkscape:connector-curvature="0" /></g><g
       id="g16"
       transform="translate(341.4733,447.2634)"><path
         d="m 0,0 180.866,0 0,-95.366 L 0,-95.366 0,0 Z"
         style="fill:none;stroke:#231f20;stroke-width:2.83500004;stroke-linecap:butt;stroke-linejoin:miter;stroke-miterlimit:22.9260006;stroke-dasharray:none;stroke-opacity:1"
         id="path18"
         inkscape:connector-curvature="0" /></g><g
       id="g20"
       transform="translate(644.4295,447.8117)"><path
         d="m 0,0 135.09,0 c 12.588,0 22.888,-10.299 22.888,-22.888 l 0,-49.59 c 0,-12.588 -10.3,-22.888 -22.888,-22.888 l -135.09,0 c -12.589,0 -22.888,10.3 -22.888,22.888 l 0,49.59 C -22.888,-10.299 -12.589,0 0,0 Z"
         style="fill:none;stroke:#231f20;stroke-width:2.83500004;stroke-linecap:butt;stroke-linejoin:miter;stroke-miterlimit:22.9260006;stroke-dasharray:none;stroke-opacity:1"
         id="path22"
         inkscape:connector-curvature="0" /></g><text
       transform="scale(1,-1)"
       style="font-variant:normal;font-weight:normal;font-stretch:normal;font-size:18px;font-family:Arial;-inkscape-font-specification:ArialMT;writing-mode:lr-tb;fill:#231f20;fill-opacity:1;fill-rule:nonzero;stroke:none"
       id="text24"
       x="103.19084"
       y="-394.48386"><tspan
         sodipodi:role="line"
         id="tspan26"
         x="103.19084"
         y="-394.48386">Mock object</tspan></text>
<text
       transform="scale(1,-1)"
       style="font-variant:normal;font-weight:normal;font-stretch:normal;font-size:18px;font-family:Arial;-inkscape-font-specification:ArialMT;writing-mode:lr-tb;fill:#231f20;fill-opacity:1;fill-rule:nonzero;stroke:none"
       id="text36"
       x="368.87952"
       y="-261.939"><tspan
         sodipodi:role="line"
         id="tspan38"
         x="368.87952"
         y="-261.939" /></text>
<text
       transform="scale(1,-1)"
       style="font-variant:normal;font-weight:normal;font-size:18px;font-family:Arial;-inkscape-font-specification:ArialMT;writing-mode:lr-tb;fill:#231f20;fill-opacity:1;fill-rule:nonzero;stroke:none"
       id="text40"
       x="416.40573"
       y="-261.939"><tspan
         sodipodi:role="line"
         id="tspan42"
         x="416.40573"
         y="-261.939">if necessary access to global variables</tspan></text>
<g
       id="g44"
       transform="translate(254.5722,400.998)"><path
         d="m 0,0 86.901,0 0,-2.835 L 0,-2.835 0,0 Z m 1.168,-8.827 -13.47,7.41 13.47,7.41 0,-14.82 z"
         style="fill:#231f20;fill-opacity:1;fill-rule:nonzero;stroke:none"
         id="path46"
         inkscape:connector-curvature="0" /></g><g
       id="g48"
       transform="translate(534.6403,401.546)"><path
         d="m 0,0 86.901,0 0,-2.835 L 0,-2.835 0,0 Z m 1.168,-8.827 -13.47,7.41 13.47,7.409 0,-14.819 z"
         style="fill:#231f20;fill-opacity:1;fill-rule:nonzero;stroke:none"
         id="path50"
         inkscape:connector-curvature="0" /></g><g
       id="g52"
       transform="translate(694.3867,353.1538)"><path
         d="M 0,0 -5.904,-18.426 -18.285,-6.333 0,0 Z m -248.125,-2.264 1.982,2.016 7.904,-7.555 7.859,-7.077 7.812,-6.595 7.773,-6.125 7.734,-5.645 7.684,-5.171 7.645,-4.704 7.601,-4.227 7.558,-3.762 7.516,-3.286 7.478,-2.828 7.43,-2.355 7.395,-1.899 7.353,-1.432 7.312,-0.973 7.282,-0.514 7.243,-0.056 7.208,0.406 7.174,0.857 7.14,1.311 7.114,1.766 7.086,2.219 7.053,2.677 7.028,3.129 7.001,3.584 6.976,4.039 6.95,4.487 6.92,4.947 6.902,5.393 6.871,5.844 6.848,6.3 6.82,6.745 2.026,-1.972 -6.897,-6.821 -6.925,-6.367 -6.96,-5.921 -6.991,-5.471 -7.03,-5.013 -7.061,-4.565 -7.098,-4.106 -7.134,-3.65 -7.171,-3.195 -7.209,-2.732 -7.241,-2.275 -7.279,-1.81 -7.319,-1.345 -7.351,-0.878 -7.385,-0.407 -7.419,0.057 -7.449,0.525 -7.49,0.995 -7.519,1.465 -7.549,1.932 -7.586,2.41 -7.61,2.873 -7.649,3.352 -7.68,3.817 -7.712,4.293 -7.744,4.76 -7.784,5.238 -7.811,5.711 -7.851,6.181 -7.89,6.661 -7.924,7.133 -7.96,7.609 z"
         style="fill:#231f20;fill-opacity:1;fill-rule:nonzero;stroke:none"
         id="path54"
         inkscape:connector-curvature="0" /></g><text
       y="-394.92221"
       x="357.1026"
       id="text4182"
       style="font-variant:normal;font-weight:normal;font-stretch:normal;font-size:18px;font-family:Arial;-inkscape-font-specification:ArialMT;writing-mode:lr-tb;fill:#231f20;fill-opacity:1;fill-rule:nonzero;stroke:none"
       transform="scale(1,-1)"><tspan
         y="-394.92221"
         x="357.1026"
         id="tspan4184"
         sodipodi:role="line">System under Test</tspan></text>
<text
       transform="scale(1,-1)"
       style="font-variant:normal;font-weight:normal;font-stretch:normal;font-size:18px;font-family:Arial;-inkscape-font-specification:ArialMT;writing-mode:lr-tb;fill:#231f20;fill-opacity:1;fill-rule:nonzero;stroke:none"
       id="text4186"
       x="687.11902"
       y="-393.79178"><tspan
         sodipodi:role="line"
         id="tspan4188"
         x="687.11902"
         y="-393.79178">Driver</tspan></text>
</g></svg>