<?xml version="1.0" encoding="UTF-8" standalone="no"?>
<svg xmlns:dc="http://purl.org/dc/elements/1.1/" xmlns:cc="http://creativecommons.org/ns#" xmlns:rdf="http://www.w3.org/1999/02/22-rdf-syntax-ns#" xmlns:svg="http://www.w3.org/2000/svg" xmlns="http://www.w3.org/2000/svg" xmlns:sodipodi="http://sodipodi.sourceforge.net/DTD/sodipodi-0.dtd" xmlns:inkscape="http://www.inkscape.org/namespaces/inkscape" version="1.1" id="Layer_1" x="0px" y="0px" viewBox="0 0 1174.599976 106.3000005" xml:space="preserve" inkscape:version="0.91 r13725" sodipodi:docname="logo_helmholtz_EN.svg" width="1174.599976" height="106.3000031"><metadata id="metadata87"><rdf:RDF><cc:Work rdf:about=""><dc:format>image/svg+xml</dc:format><dc:type rdf:resource="http://purl.org/dc/dcmitype/StillImage"/><dc:title/></cc:Work></rdf:RDF></metadata><defs id="defs85"/><sodipodi:namedview pagecolor="#ffffff" bordercolor="#666666" borderopacity="1" objecttolerance="10" gridtolerance="10" guidetolerance="10" inkscape:pageopacity="0" inkscape:pageshadow="2" inkscape:window-width="640" inkscape:window-height="480" id="namedview83" showgrid="true" fit-margin-top="0" fit-margin-left="0" fit-margin-right="0" fit-margin-bottom="0" inkscape:zoom="1.005342294" inkscape:cx="560.2206752" inkscape:cy="-5.681094219" inkscape:current-layer="g5" units="px" inkscape:showpageshadow="false"><inkscape:grid type="xygrid" id="grid13616"/></sodipodi:namedview><style type="text/css" id="style3">
	.st0{fill:#ffffff;}
	.st1{fill:#8CB423;}
	.st2{fill:none;}
</style><g id="g5" transform="translate(-1.5,-64.40000305)"><g id="g7" transform="translate(0,-9.999995424)"><path class="st0" d="m 46.9,119.5 0,-34.5 16.3,0 0,85 -16.3,0 0,-34.3 -29.1,0 0,34.3 -16.3,0 0,-85 16.3,0 0,34.4 c 0,0.1 29.1,0.1 29.1,0.1 z" id="path9" inkscape:connector-curvature="0" style="fill:#ffffff"/><path class="st0" d="m 135.1,85 0,16.3 -37.3,0 0,18.1 32.4,0 0,16.3 -32.4,0 0,18 37.3,0 0,16.3 -45.5,0 c -0.7,0 -1.4,-0.2 -1.9,-0.8 l -5.3,-5.3 c -0.6,-0.5 -0.8,-1.2 -0.8,-1.9 l 0,-69 c 0,-0.7 0.2,-1.4 0.8,-1.9 l 5.3,-5.3 C 88.2,85.3 88.9,85 89.6,85 l 45.5,0 z" id="path11" inkscape:connector-curvature="0" style="fill:#ffffff"/><path class="st0" d="m 160.4,170.1 c -0.7,0 -1.4,-0.2 -1.9,-0.8 l -5.3,-5.3 c -0.6,-0.5 -0.8,-1.2 -0.8,-1.9 l 0,-77.1 16.3,0 0,68.7 35.5,0 0,16.3 -43.8,0.1 0,0 z" id="path13" inkscape:connector-curvature="0" style="fill:#ffffff"/><path class="st0" d="m 291.7,85 0,85 -16.3,0 0,-47 -13.3,27.8 c -0.5,1 -1.4,1.6 -2.4,1.6 l -9.6,0 c -1.1,0 -2,-0.6 -2.5,-1.6 l -13.3,-27.8 0,47 -16.3,0 0,-85 16.3,0 20.6,43.2 20.5,-43.2 c 0,0 16.3,0 16.3,0 z" id="path15" inkscape:connector-curvature="0" style="fill:#ffffff"/><path class="st0" d="m 354.4,119.5 0,-34.5 16.3,0 0,85 -16.3,0 0,-34.3 -29.1,0 0,34.3 -16.3,0 0,-85 16.3,0 0,34.4 c 0,0.1 29.1,0.1 29.1,0.1 z" id="path17" inkscape:connector-curvature="0" style="fill:#ffffff"/><path class="st0" d="m 436.3,89.1 8.5,8.4 c 2.5,2.5 4,6 4,9.6 l 0,40.9 c 0,3.6 -1.4,7.1 -4,9.6 l -8.5,8.5 c -2.5,2.5 -6,4 -9.6,4 l -19.1,0 c -3.6,0 -7.2,-1.3 -9.7,-4 l -8.4,-8.5 c -2.5,-2.5 -4,-6 -4,-9.6 l 0,-40.9 c 0,-3.6 1.4,-7.1 4,-9.6 l 8.4,-8.4 c 2.6,-2.6 6.1,-4.1 9.7,-4.1 l 19.1,0 c 3.6,0 6.9,1.6 9.6,4.1 z m -3.9,56.7 0,-36.5 c 0,-0.7 -0.4,-1.4 -0.8,-1.9 l -5.2,-5.3 c -0.6,-0.5 -1.3,-0.8 -2,-0.8 l -14.6,0 c -0.7,0 -1.3,0.4 -1.9,0.8 l -5.2,5.3 c -0.6,0.5 -0.8,1.2 -0.8,1.9 l 0,36.5 c 0,0.7 0.2,1.3 0.8,1.9 l 5.2,5.2 c 0.6,0.6 1.2,0.8 1.9,0.8 l 14.6,0 c 0.7,0 1.4,-0.2 2,-0.8 l 5.2,-5.2 c 0.5,-0.5 0.8,-1.1 0.8,-1.9 z" id="path19" inkscape:connector-curvature="0" style="fill:#ffffff"/><path class="st0" d="m 471.2,170.1 c -0.7,0 -1.4,-0.2 -1.9,-0.8 L 464,164 c -0.6,-0.5 -0.8,-1.2 -0.8,-1.9 l 0,-77.1 16.3,0 0,68.7 35.5,0 0,16.3 -43.8,0.1 0,0 z" id="path21" inkscape:connector-curvature="0" style="fill:#ffffff"/><path class="st0" d="m 513.8,101.3 0,-16.3 61.4,0 0,16.3 -22.6,0 0,68.7 -16.3,0 0,-68.7 -22.5,0 z" id="path23" inkscape:connector-curvature="0" style="fill:#ffffff"/><path class="st0" d="m 638.4,85.9 5.3,5.3 c 0.5,0.5 0.8,1.2 0.8,1.9 l 0,4.2 -35.7,56.5 35.2,0 0,16.3 -48.7,0 c -0.7,0 -1.4,-0.2 -1.9,-0.8 l -5.3,-5.3 c -0.5,-0.5 -0.8,-1.2 -0.8,-1.9 l 0,-4.9 35.3,-55.8 -35.7,0 0,-16.4 49.7,0 c 0.6,0 1.3,0.4 1.8,0.9 z" id="path25" inkscape:connector-curvature="0" style="fill:#ffffff"/></g><g id="g27" transform="translate(0,-9.999995424)"><path class="st1" d="m 705.8,85.1 7.5,0 c 2.9,0 5.1,0.1 6.6,0.3 2.9,0.4 5.2,1.5 6.8,3.4 1.5,1.8 2.3,4 2.3,6.6 0,4.6 -2.2,7.8 -6.7,9.6 l 8.6,15 -6.4,0 -8,-14.1 -5.4,0 0,14.1 -5.4,0 0,-34.9 z m 5.4,16.2 2.4,0 c 3.1,0 5.2,-0.2 6.4,-0.6 1.2,-0.4 2,-1.1 2.6,-2.2 0.5,-0.9 0.8,-1.9 0.8,-3.1 0,-2.3 -0.9,-3.9 -2.7,-4.8 -0.9,-0.5 -2.2,-0.7 -3.8,-0.8 -0.6,0 -1.8,-0.1 -3.5,-0.1 l -2.2,0 0,11.6 0,0 z" id="path29" inkscape:connector-curvature="0" style="fill:#8cb423"/><path class="st1" d="m 741.4,99.6 14,0 0,4.7 -14,0 0,11.1 15.8,0 0,4.7 -21.2,0 0,-35 20.7,0 0,4.6 -15.3,0 0,9.9 z" id="path31" inkscape:connector-curvature="0" style="fill:#8cb423"/><path class="st1" d="m 784.9,94.8 -5.2,0 c -0.1,-1.5 -0.6,-2.7 -1.3,-3.6 -1.1,-1.3 -2.8,-2 -4.9,-2 -1.5,0 -2.8,0.4 -3.8,1.1 -1.2,0.9 -1.8,2 -1.8,3.4 0,1.3 0.6,2.3 1.9,3.1 0.8,0.5 2.8,1.4 5.9,2.7 2.7,1.1 4.6,2 5.6,2.6 3.1,1.9 4.7,4.6 4.7,8.2 0,3.4 -1.3,6.1 -3.9,8.1 -2.1,1.6 -4.8,2.3 -8.1,2.3 -4.9,0 -8.4,-1.6 -10.7,-4.8 -1.2,-1.8 -1.9,-4.2 -2.1,-7.2 l 5.3,0 c 0.2,2.2 0.8,3.8 1.8,5 1.3,1.5 3.3,2.3 5.8,2.3 1.8,0 3.4,-0.5 4.6,-1.4 1.2,-0.9 1.7,-2 1.7,-3.4 0,-1.5 -0.8,-2.8 -2.3,-3.8 -0.8,-0.6 -2.7,-1.5 -5.7,-2.8 -3.6,-1.5 -6,-2.9 -7.2,-4 -1.9,-1.7 -2.8,-3.9 -2.8,-6.5 0,-3.2 1.3,-5.8 3.9,-7.5 2.1,-1.5 4.6,-2.2 7.4,-2.2 4.2,0 7.4,1.4 9.5,4.3 1,1.6 1.6,3.6 1.7,6.1 z" id="path33" inkscape:connector-curvature="0" style="fill:#8cb423"/><path class="st1" d="m 798,99.6 14,0 0,4.7 -14,0 0,11.1 15.8,0 0,4.7 -21.2,0 0,-35 20.7,0 0,4.6 -15.3,0 0,9.9 z" id="path35" inkscape:connector-curvature="0" style="fill:#8cb423"/><path class="st1" d="m 828.3,85 5.3,0 12,35.1 -5.6,0 -2.6,-8.2 -12.7,0 -2.6,8.2 -5.6,0 11.8,-35.1 z m 7.6,22.2 -4.9,-15.7 -4.9,15.7 9.8,0 z" id="path37" inkscape:connector-curvature="0" style="fill:#8cb423"/><path class="st1" d="m 850.6,85.1 7.5,0 c 2.9,0 5.1,0.1 6.6,0.3 2.9,0.4 5.2,1.5 6.8,3.4 1.5,1.8 2.3,4 2.3,6.6 0,4.6 -2.2,7.8 -6.7,9.6 l 8.6,15 -6.4,0 -8,-14.1 -5.3,0 0,14.1 -5.4,0 0,-34.9 z m 5.4,16.2 2.4,0 c 3.1,0 5.2,-0.2 6.4,-0.6 1.2,-0.4 2,-1.1 2.6,-2.2 0.5,-0.9 0.8,-1.9 0.8,-3.1 0,-2.3 -0.9,-3.9 -2.7,-4.8 -0.9,-0.5 -2.2,-0.7 -3.8,-0.8 -0.6,0 -1.8,-0.1 -3.5,-0.1 l -2.2,0 0,11.6 0,0 z" id="path39" inkscape:connector-curvature="0" style="fill:#8cb423"/><path class="st1" d="m 905.8,95.7 -4.8,0 c -0.8,-4.3 -3.2,-6.5 -7.2,-6.5 -2.8,0 -5,1.1 -6.6,3.4 -1.8,2.5 -2.6,5.9 -2.6,10 0,4.2 0.9,7.6 2.7,10.1 1.6,2.2 3.8,3.3 6.6,3.3 4.5,0 7,-2.8 7.5,-8.4 l 4.9,0 c -0.2,3.1 -0.9,5.7 -2,7.7 -2.1,3.6 -5.5,5.4 -10.2,5.4 -4.2,0 -7.7,-1.4 -10.4,-4.2 -3.2,-3.3 -4.8,-7.9 -4.8,-13.8 0,-6.4 1.8,-11.3 5.4,-14.6 2.6,-2.4 5.9,-3.6 9.6,-3.6 2.4,0 4.5,0.5 6.4,1.5 3.2,1.8 5,5 5.5,9.7 z" id="path41" inkscape:connector-curvature="0" style="fill:#8cb423"/><path class="st1" d="m 917.8,99.6 15.1,0 0,-14.5 5.4,0 0,35 -5.4,0 0,-16 -15.1,0 0,16 -5.4,0 0,-35 5.4,0 0,14.5 z" id="path43" inkscape:connector-curvature="0" style="fill:#8cb423"/><path class="st1" d="m 965.6,99.6 14,0 0,4.7 -14,0 0,15.8 -5.4,0 0,-35 20.7,0 0,4.6 -15.3,0 0,9.9 z" id="path45" inkscape:connector-curvature="0" style="fill:#8cb423"/><path class="st1" d="m 999.6,84.4 c 4.2,0 7.6,1.5 10.4,4.4 3.1,3.3 4.7,7.9 4.7,13.7 0,5.8 -1.6,10.4 -4.7,13.7 -2.8,2.9 -6.2,4.4 -10.4,4.4 -4.2,0 -7.7,-1.5 -10.4,-4.4 -3.1,-3.3 -4.7,-8 -4.7,-14 0,-2.6 0.4,-5.2 1.3,-7.7 1.2,-3.5 3.2,-6.2 6.3,-8.1 2.2,-1.3 4.7,-2 7.5,-2 z m 0,4.7 c -2.9,0 -5.1,1.1 -6.7,3.4 -1.8,2.6 -2.7,5.9 -2.7,9.9 0,4.3 0.9,7.7 2.7,10.3 1.6,2.3 3.8,3.4 6.7,3.4 2.9,0 5.1,-1.1 6.7,-3.4 1.8,-2.6 2.7,-5.9 2.7,-10.1 0,-4.2 -0.9,-7.6 -2.7,-10.1 -1.6,-2.3 -3.9,-3.4 -6.7,-3.4 z" id="path47" inkscape:connector-curvature="0" style="fill:#8cb423"/><path class="st1" d="m 1021.3,85.1 7.5,0 c 2.9,0 5.1,0.1 6.6,0.3 2.9,0.4 5.2,1.5 6.8,3.4 1.5,1.8 2.3,4 2.3,6.6 0,4.6 -2.2,7.8 -6.7,9.6 l 8.6,15 -6.4,0 -8,-14.1 -5.4,0 0,14.1 -5.4,0 0.1,-34.9 0,0 z m 5.4,16.2 2.4,0 c 3.1,0 5.2,-0.2 6.4,-0.6 1.2,-0.4 2,-1.1 2.6,-2.2 0.5,-0.9 0.8,-1.9 0.8,-3.1 0,-2.3 -0.9,-3.9 -2.7,-4.8 -0.9,-0.5 -2.2,-0.7 -3.8,-0.8 -0.6,0 -1.8,-0.1 -3.5,-0.1 l -2.2,0 0,11.6 0,0 z" id="path49" inkscape:connector-curvature="0" style="fill:#8cb423"/><path class="st1" d="m 719.9,152.3 11.7,0 0,14.5 c -3.7,2.6 -7.8,3.9 -12.3,3.9 -4.5,0 -8.2,-1.4 -10.9,-4.3 -1.6,-1.6 -2.7,-3.6 -3.5,-5.9 -0.8,-2.5 -1.2,-5.2 -1.2,-8 0,-6 1.6,-10.6 4.7,-13.9 2.7,-2.8 6.2,-4.3 10.4,-4.3 2.5,0 4.7,0.5 6.6,1.6 3.3,1.8 5.2,5 5.6,9.6 l -4.8,0 c -0.8,-4.3 -3.3,-6.4 -7.4,-6.4 -2.8,0 -5,1 -6.6,3 -2,2.5 -2.9,6 -2.9,10.4 0,4.5 1,7.9 3,10.4 1.6,2 3.9,3 6.9,3 2.7,0 5.2,-0.8 7.6,-2.3 l 0,-7.1 -7.1,0 0.2,-4.2 0,0 z" id="path51" inkscape:connector-curvature="0" style="fill:#8cb423"/><path class="st1" d="m 739,135.1 7.5,0 c 2.9,0 5.1,0.1 6.6,0.3 2.9,0.4 5.2,1.5 6.8,3.4 1.5,1.8 2.3,4 2.3,6.6 0,4.6 -2.2,7.8 -6.7,9.6 l 8.6,15 -6.4,0 -8,-14.1 -5.4,0 0,14.1 -5.3,0 0,-34.9 0,0 z m 5.4,16.2 2.4,0 c 3.1,0 5.2,-0.2 6.4,-0.6 1.2,-0.4 2,-1.1 2.6,-2.2 0.5,-0.9 0.8,-1.9 0.8,-3.1 0,-2.3 -0.9,-3.9 -2.7,-4.8 -0.9,-0.5 -2.2,-0.7 -3.8,-0.8 -0.6,0 -1.8,-0.1 -3.5,-0.1 l -2.2,0 0,11.6 0,0 z" id="path53" inkscape:connector-curvature="0" style="fill:#8cb423"/><path class="st1" d="m 777.6,135 5.3,0 12,35.1 -5.6,0 -2.6,-8.2 -12.7,0 -2.6,8.2 -5.6,0 11.8,-35.1 z m 7.6,22.2 -4.9,-15.7 -4.9,15.7 9.8,0 z" id="path55" inkscape:connector-curvature="0" style="fill:#8cb423"/><path class="st1" d="m 799.9,135.1 5.8,0 15.4,26.7 0,-26.7 5.1,0 0,35 -5.6,0 -15.6,-26.7 0,26.7 -5.2,0 0.1,-35 0,0 z" id="path57" inkscape:connector-curvature="0" style="fill:#8cb423"/><path class="st1" d="m 835,135.1 7.1,0 c 2.8,0 5.2,0.1 7,0.4 3.7,0.6 6.7,2.3 9,5.3 2.5,3.2 3.7,7.2 3.7,11.8 0,4.8 -1.3,8.8 -3.8,12 -2.3,3 -5.5,4.7 -9.4,5.2 -1.6,0.2 -4,0.3 -7.2,0.3 l -6.4,0 0,-35 0,0 z m 5.4,30.3 2.8,0 c 2.1,0 3.7,-0.1 4.9,-0.3 2.6,-0.5 4.6,-1.8 6,-4 1.4,-2.3 2.1,-5.2 2.1,-8.6 0,-3.5 -0.8,-6.4 -2.4,-8.7 -1.4,-2.1 -3.4,-3.4 -6,-3.8 -1.2,-0.2 -3.1,-0.3 -5.9,-0.3 l -1.5,0 0,25.7 0,0 z" id="path59" inkscape:connector-curvature="0" style="fill:#8cb423"/><path class="st1" d="m 906.4,145.7 -4.8,0 c -0.8,-4.3 -3.2,-6.5 -7.2,-6.5 -2.8,0 -5,1.1 -6.6,3.4 -1.8,2.5 -2.6,5.9 -2.6,10 0,4.2 0.9,7.6 2.7,10.1 1.6,2.2 3.8,3.3 6.6,3.3 4.5,0 7,-2.8 7.5,-8.4 l 4.9,0 c -0.2,3.1 -0.9,5.7 -2,7.7 -2.1,3.6 -5.5,5.4 -10.2,5.4 -4.2,0 -7.7,-1.4 -10.4,-4.2 -3.2,-3.3 -4.8,-7.9 -4.8,-13.8 0,-6.4 1.8,-11.3 5.4,-14.6 2.6,-2.4 5.9,-3.6 9.6,-3.6 2.4,0 4.5,0.5 6.4,1.5 3.2,1.8 5.1,5 5.5,9.7 z" id="path61" inkscape:connector-curvature="0" style="fill:#8cb423"/><path class="st1" d="m 918.5,149.6 15.1,0 0,-14.5 5.4,0 0,35 -5.4,0 0,-16 -15.1,0 0,16 -5.4,0 0,-35 5.4,0 0,14.5 z" id="path63" inkscape:connector-curvature="0" style="fill:#8cb423"/><path class="st1" d="m 956.1,135 5.3,0 12,35.1 -5.6,0 -2.6,-8.2 -12.7,0 -2.6,8.2 -5.6,0 11.8,-35.1 z m 7.5,22.2 -4.9,-15.7 -4.9,15.7 9.8,0 z" id="path65" inkscape:connector-curvature="0" style="fill:#8cb423"/><path class="st1" d="m 978.4,135.1 5.6,0 0,30.3 15.1,0 0,4.7 -20.7,0 0,-35 0,0 z" id="path67" inkscape:connector-curvature="0" style="fill:#8cb423"/><path class="st1" d="m 1004.5,135.1 5.6,0 0,30.3 15.1,0 0,4.7 -20.7,0 0,-35 0,0 z" id="path69" inkscape:connector-curvature="0" style="fill:#8cb423"/><path class="st1" d="m 1035.9,149.6 14,0 0,4.7 -14,0 0,11.1 15.8,0 0,4.7 -21.2,0 0,-35 20.7,0 0,4.6 -15.3,0 0,9.9 z" id="path71" inkscape:connector-curvature="0" style="fill:#8cb423"/><path class="st1" d="m 1057.8,135.1 5.8,0 15.4,26.7 0,-26.7 5.1,0 0,35 -5.6,0 -15.6,-26.7 0,26.7 -5.2,0 0,-35 z" id="path73" inkscape:connector-curvature="0" style="fill:#8cb423"/><path class="st1" d="m 1107,152.3 11.7,0 0,14.5 c -3.7,2.6 -7.8,3.9 -12.3,3.9 -4.5,0 -8.2,-1.4 -10.9,-4.3 -1.6,-1.6 -2.7,-3.6 -3.5,-5.9 -0.8,-2.5 -1.2,-5.2 -1.2,-8 0,-6 1.6,-10.6 4.7,-13.9 2.7,-2.8 6.2,-4.3 10.4,-4.3 2.5,0 4.7,0.5 6.6,1.6 3.3,1.8 5.2,5 5.6,9.6 l -4.8,0 c -0.8,-4.3 -3.3,-6.4 -7.4,-6.4 -2.8,0 -5,1 -6.6,3 -2,2.5 -2.9,6 -2.9,10.4 0,4.5 1,7.9 3,10.4 1.6,2 3.9,3 6.9,3 2.7,0 5.2,-0.8 7.6,-2.3 l 0,-7.1 -7.1,0 0.2,-4.2 0,0 z" id="path75" inkscape:connector-curvature="0" style="fill:#8cb423"/><path class="st1" d="m 1131.5,149.6 14,0 0,4.7 -14,0 0,11.1 15.8,0 0,4.7 -21.2,0 0,-35 20.7,0 0,4.6 -15.3,0 0,9.9 0,0 z" id="path77" inkscape:connector-curvature="0" style="fill:#8cb423"/><path class="st1" d="m 1175,144.8 -5.2,0 c -0.1,-1.5 -0.6,-2.7 -1.3,-3.6 -1.1,-1.3 -2.8,-2 -4.9,-2 -1.5,0 -2.8,0.4 -3.8,1.1 -1.2,0.9 -1.8,2 -1.8,3.4 0,1.3 0.6,2.3 1.9,3.1 0.8,0.5 2.8,1.4 5.9,2.7 2.7,1.1 4.6,2 5.6,2.6 3.1,1.9 4.7,4.6 4.7,8.2 0,3.4 -1.3,6.1 -3.9,8.1 -2.1,1.6 -4.8,2.3 -8.1,2.3 -4.9,0 -8.4,-1.6 -10.7,-4.8 -1.2,-1.8 -1.9,-4.2 -2.1,-7.2 l 5.3,0 c 0.2,2.2 0.8,3.8 1.8,5 1.3,1.5 3.3,2.3 5.8,2.3 1.8,0 3.4,-0.5 4.6,-1.4 1.2,-0.9 1.7,-2 1.7,-3.4 0,-1.5 -0.8,-2.8 -2.3,-3.8 -0.8,-0.6 -2.7,-1.5 -5.7,-2.8 -3.6,-1.5 -6,-2.9 -7.2,-4 -1.9,-1.7 -2.8,-3.9 -2.8,-6.5 0,-3.2 1.3,-5.8 3.9,-7.5 2.1,-1.5 4.6,-2.2 7.4,-2.2 4.2,0 7.4,1.4 9.5,4.3 0.9,1.6 1.5,3.6 1.7,6.1 z" id="path79" inkscape:connector-curvature="0" style="fill:#8cb423"/></g><rect class="st2" width="1420.599976" height="255.1000061" id="rect81" x="0" y="0" style="fill:none"/></g></svg>