<?xml version="1.0" encoding="utf-8"?>
<!-- Generator: Adobe Illustrator 23.0.2, SVG Export Plug-In . SVG Version: 6.00 Build 0)  -->
<svg version="1.1" id="Ebene_1" xmlns="http://www.w3.org/2000/svg" xmlns:xlink="http://www.w3.org/1999/xlink" x="0px" y="0px"
	 viewBox="0 0 1083.3 271.6" style="enable-background:new 0 0 1083.3 271.6;" xml:space="preserve">
<style type="text/css">
	.st0{fill:#005AA0;}
	.st1{fill:#8CB423;}
</style>
<g>
	<path class="st0" d="M712.4,94.8v-9.3h4.4v23h-4.4v-9.3h-7.9v9.3h-4.4v-23h4.4v9.3H712.4z"/>
	<path class="st0" d="M725.2,89.9v4.9h8.4v4.4h-8.4v4.9h10.1v4.4h-12.3c-0.2,0-0.4-0.1-0.5-0.2l-1.4-1.4c-0.1-0.1-0.2-0.3-0.2-0.5
		V87.7c0-0.2,0.1-0.4,0.2-0.5l1.4-1.4c0.1-0.1,0.3-0.2,0.5-0.2h12.3v4.4H725.2z"/>
	<path class="st0" d="M752.4,104.1v4.4h-11.1c-0.2,0-0.4-0.1-0.5-0.2l-1.4-1.4c-0.1-0.1-0.2-0.3-0.2-0.5V85.5h4.4v18.6H752.4z"/>
	<path class="st0" d="M775,85.5v23h-4.4V95.8l-3.1,6.5c-0.1,0.2-0.3,0.3-0.5,0.3h-3.5c-0.2,0-0.4-0.1-0.5-0.3l-3.1-6.5v12.7h-4.4
		v-23h4.4l5.3,11.2l5.3-11.2H775z"/>
	<path class="st0" d="M792,94.8v-9.3h4.4v23H792v-9.3h-7.9v9.3h-4.4v-23h4.4v9.3H792z"/>
	<path class="st0" d="M814.4,86.6l2.3,2.3c0.7,0.7,1.1,1.6,1.1,2.6v11.1c0,1-0.4,1.9-1.1,2.6l-2.3,2.3c-0.7,0.7-1.6,1.1-2.6,1.1
		h-5.2c-1,0-1.9-0.4-2.6-1.1l-2.3-2.3c-0.7-0.7-1.1-1.6-1.1-2.6V91.4c0-1,0.4-1.9,1.1-2.6l2.3-2.3c0.7-0.7,1.7-1.1,2.6-1.1h5.2
		C812.8,85.5,813.7,85.9,814.4,86.6z M813.4,101.9V92c0-0.2-0.1-0.4-0.2-0.5l-1.4-1.4c-0.2-0.1-0.4-0.2-0.5-0.2h-4
		c-0.2,0-0.4,0.1-0.5,0.2l-1.4,1.4c-0.2,0.1-0.2,0.3-0.2,0.5v9.9c0,0.2,0.1,0.4,0.2,0.5l1.4,1.4c0.2,0.2,0.3,0.2,0.5,0.2h4
		c0.2,0,0.4-0.1,0.5-0.2l1.4-1.4C813.3,102.3,813.4,102.1,813.4,101.9z"/>
	<path class="st0" d="M835.3,104.1v4.4h-11.1c-0.2,0-0.4-0.1-0.5-0.2l-1.4-1.4c-0.1-0.1-0.2-0.3-0.2-0.5V85.5h4.4v18.6H835.3z"/>
	<path class="st0" d="M834.2,89.9v-4.4h15.9v4.4h-5.8v18.6h-4.4V89.9H834.2z"/>
	<path class="st0" d="M866.6,85.5c0.2,0,0.4,0.1,0.5,0.2l1.4,1.4c0.1,0.1,0.2,0.3,0.2,0.5v1.1l-9.7,15.3h9.7v4.4h-13.3
		c-0.2,0-0.4-0.1-0.5-0.2l-1.4-1.4c-0.1-0.1-0.2-0.3-0.2-0.5V105l9.5-15h-9.4v-4.4H866.6z"/>
	<path class="st0" d="M710.9,131.7c-0.2-2.2-1.6-3.5-3.9-3.5c-2,0-3.5,1.2-3.5,2.8c0,0.8,0.4,1.5,1.2,1.9c0.6,0.4,1,0.6,3.7,1.7
		c3.1,1.3,4.1,1.8,4.9,2.8c0.9,1,1.4,2.3,1.4,3.9c0,3.9-2.9,6.4-7.4,6.4c-4.9,0-7.6-2.6-7.8-7.4h3.2c0.3,3,1.8,4.5,4.7,4.5
		c2.3,0,3.9-1.2,3.9-2.9c0-1-0.5-1.7-1.4-2.4c-0.7-0.5-1.1-0.6-3.6-1.7c-2.3-1-3.6-1.7-4.4-2.5c-1.1-1-1.7-2.4-1.7-4
		c0-3.5,2.9-6,7-6c2.5,0,4.6,1,5.8,2.7c0.7,1,1,2,1.1,3.7H710.9z"/>
	<path class="st0" d="M731.3,132.3c-0.5-2.7-2-4-4.5-4c-3.5,0-5.7,3.2-5.7,8.3c0,5.1,2.2,8.3,5.8,8.3c2.7,0,4.3-1.8,4.6-5.2h3
		c-0.3,5.2-3,8.1-7.6,8.1c-5.7,0-9.4-4.4-9.4-11.1c0-3.9,1.1-7,3.3-9c1.6-1.4,3.7-2.2,5.9-2.2c4.3,0,7,2.5,7.4,6.9H731.3z"/>
	<path class="st0" d="M751,134.7v-8.9h3.3v21.6H751v-9.9h-9.3v9.9h-3.3v-21.6h3.3v8.9H751z"/>
	<path class="st0" d="M777,136.5c0,6.7-3.7,11.2-9.3,11.2c-5.6,0-9.3-4.5-9.3-11.3c0-6.5,3.8-11.1,9.3-11.1
		C773.3,125.4,777,129.9,777,136.5z M761.9,136.4c0,5.2,2.2,8.4,5.8,8.4c3.6,0,5.8-3.2,5.8-8.3c0-5.1-2.2-8.3-5.8-8.3
		C764.2,128.2,761.9,131.5,761.9,136.4z"/>
	<path class="st0" d="M798.4,136.5c0,6.7-3.7,11.2-9.3,11.2c-5.6,0-9.3-4.5-9.3-11.3c0-6.5,3.8-11.1,9.3-11.1
		C794.7,125.4,798.4,129.9,798.4,136.5z M783.3,136.4c0,5.2,2.2,8.4,5.8,8.4c3.6,0,5.8-3.2,5.8-8.3c0-5.1-2.2-8.3-5.8-8.3
		C785.5,128.2,783.3,131.5,783.3,136.4z"/>
	<path class="st0" d="M805.9,125.7v18.7h9.3v2.9h-12.7v-21.6H805.9z"/>
	<path class="st0" d="M838.7,134.7v2.9H830v9.8h-3.3v-21.6h12.8v2.9H830v6.1H838.7z"/>
	<path class="st0" d="M860.2,136.5c0,6.7-3.7,11.2-9.3,11.2c-5.6,0-9.3-4.5-9.3-11.3c0-6.5,3.8-11.1,9.3-11.1
		C856.5,125.4,860.2,129.9,860.2,136.5z M845.1,136.4c0,5.2,2.2,8.4,5.8,8.4c3.6,0,5.8-3.2,5.8-8.3c0-5.1-2.2-8.3-5.8-8.3
		S845.1,131.5,845.1,136.4z"/>
	<path class="st0" d="M868.9,125.7c3.6,0,5,0.2,6.4,0.9c2,1,3.3,3,3.3,5.5c0,2.8-1.4,4.9-4.1,6l5.3,9.2h-4l-4.9-8.7h-3.3v8.7h-3.3
		v-21.6H868.9z M869.1,135.8c2.3,0,3-0.1,3.9-0.4c1.3-0.5,2.1-1.7,2.1-3.3c0-1.4-0.6-2.4-1.7-2.9c-0.9-0.5-1.6-0.6-4.5-0.6h-1.3v7.2
		H869.1z"/>
	<path class="st0" d="M895.9,125.7l5.3,18l5.4-18h4.8v21.6h-3.1v-17.9l-5.3,17.9h-3.4l-5.3-17.9v17.9h-3.1v-21.6H895.9z"/>
	<path class="st0" d="M925.1,125.7l7.4,21.7H929l-1.6-5.1h-7.9l-1.6,5.1h-3.4l7.4-21.7H925.1z M923.5,129.7l-3,9.7h6.1L923.5,129.7z
		"/>
	<path class="st0" d="M940.3,125.7c3.6,0,5,0.2,6.4,0.9c2,1,3.3,3,3.3,5.5c0,2.8-1.4,4.9-4.1,6l5.3,9.2h-4l-4.9-8.7H939v8.7h-3.3
		v-21.6H940.3z M940.5,135.8c2.3,0,3-0.1,3.9-0.4c1.3-0.5,2.1-1.7,2.1-3.3c0-1.4-0.6-2.4-1.7-2.9c-0.9-0.5-1.6-0.6-4.5-0.6H939v7.2
		H940.5z"/>
	<path class="st0" d="M954.3,147.4v-21.6h3.4v21.6H954.3z"/>
	<path class="st0" d="M966.7,125.7l9.5,16.5v-16.5h3.2v21.6h-3.5l-9.6-16.5v16.5h-3.2v-21.6H966.7z"/>
	<path class="st0" d="M996.8,134.7v2.9h-8.7v6.9h9.7v2.9h-13.1v-21.6h12.8v2.9h-9.5v6.1H996.8z"/>
	<path class="st0" d="M704.5,164.5c3.7,0,5.5,0.3,7.2,1.2c3.1,1.7,5,5.3,5,9.6c0,4.3-1.8,7.9-4.8,9.6c-1.8,1-3.3,1.3-7.8,1.3h-3.9
		v-21.6H704.5z M705.2,183.3c2.8,0,3.9-0.2,5.2-1c1.8-1.2,2.9-3.7,2.9-6.9c0-3.2-1.1-5.7-3.1-6.9c-1.3-0.8-2.2-1-5.7-1h-0.9v15.8
		H705.2z"/>
	<path class="st0" d="M728.3,164.5l7.4,21.7h-3.5l-1.6-5.1h-7.9l-1.6,5.1h-3.4l7.4-21.7H728.3z M726.6,168.5l-3,9.7h6.1L726.6,168.5
		z"/>
	<path class="st0" d="M749.4,164.5v2.9h-5.7v18.7h-3.3v-18.7h-5.6v-2.9H749.4z"/>
	<path class="st0" d="M759,164.5l7.4,21.7h-3.5l-1.6-5.1h-7.9l-1.6,5.1h-3.4l7.4-21.7H759z M757.4,168.5l-3,9.7h6.1L757.4,168.5z"/>
	<path class="st0" d="M787.8,170.5c-0.2-2.2-1.6-3.5-3.9-3.5c-2,0-3.5,1.2-3.5,2.8c0,0.8,0.4,1.5,1.2,1.9c0.6,0.4,1,0.6,3.7,1.7
		c3.1,1.3,4.1,1.8,4.9,2.8c0.9,1,1.4,2.3,1.4,3.9c0,3.9-2.9,6.4-7.4,6.4c-4.9,0-7.6-2.6-7.8-7.4h3.2c0.3,3,1.8,4.5,4.7,4.5
		c2.3,0,3.9-1.2,3.9-2.9c0-1-0.5-1.7-1.4-2.4c-0.7-0.5-1.1-0.6-3.6-1.7c-2.3-1-3.6-1.7-4.4-2.5c-1.1-1-1.7-2.4-1.7-4
		c0-3.5,2.9-6,7-6c2.5,0,4.6,1,5.8,2.7c0.7,1,1,2,1.1,3.7H787.8z"/>
	<path class="st0" d="M808.1,171.1c-0.5-2.7-2-4-4.5-4c-3.5,0-5.7,3.2-5.7,8.3c0,5.1,2.2,8.3,5.8,8.3c2.7,0,4.3-1.8,4.6-5.2h3
		c-0.3,5.2-3,8.1-7.6,8.1c-5.7,0-9.4-4.4-9.4-11.1c0-3.9,1.1-7,3.3-9c1.6-1.4,3.7-2.2,5.9-2.2c4.3,0,7,2.5,7.4,6.9H808.1z"/>
	<path class="st0" d="M815.2,186.1v-21.6h3.4v21.6H815.2z"/>
	<path class="st0" d="M835.9,173.5v2.9h-8.7v6.9h9.7v2.9h-13.1v-21.6h12.8v2.9h-9.5v6.1H835.9z"/>
	<path class="st0" d="M844.4,164.5l9.5,16.5v-16.5h3.2v21.6h-3.5l-9.6-16.5v16.5h-3.2v-21.6H844.4z"/>
	<path class="st0" d="M874.7,171.1c-0.5-2.7-2-4-4.5-4c-3.5,0-5.7,3.2-5.7,8.3c0,5.1,2.2,8.3,5.8,8.3c2.7,0,4.3-1.8,4.6-5.2h3
		c-0.3,5.2-3,8.1-7.6,8.1c-5.7,0-9.4-4.4-9.4-11.1c0-3.9,1.1-7,3.3-9c1.6-1.4,3.7-2.2,5.9-2.2c4.3,0,7,2.5,7.4,6.9H874.7z"/>
	<path class="st0" d="M893.8,173.5v2.9h-8.7v6.9h9.7v2.9h-13.1v-21.6h12.8v2.9h-9.5v6.1H893.8z"/>
</g>
<rect x="676.7" y="85.5" class="st0" width="2.3" height="100.7"/>
<path class="st1" d="M401.9,100.2c3,3,4.7,7.1,4.7,11.4V160c0,4.3-1.7,8.4-4.7,11.4l-9.9,10.1c-3,3.1-7.1,4.7-11.4,4.7h-37.1
	c-0.8,0-1.7-0.3-2.3-1l-6.2-6.2c-0.7-0.6-1-1.4-1-2.3V94.9v-9.4h46.6c4.3,0,8.2,1.7,11.4,4.8L401.9,100.2z M387.2,114.3
	c0-0.9-0.3-1.7-0.9-2.3l-6.2-6.2c-0.6-0.6-1.4-1-2.3-1h-24.6v62h24.6c0.9,0,1.7-0.3,2.3-1l6.2-6.1c0.6-0.7,0.9-1.4,0.9-2.3V114.3z"
	/>
<path class="st1" d="M523.1,104.8h-25.3V85.5h69.9v19.3h-25.3v81.3h-19.3V104.8z"/>
<path class="st1" d="M583.8,186.1h-20.4L598,87.8c0.4-1.4,1.6-2.3,3-2.3h16.9c1.3,0,2.6,0.9,3,2.1l34.6,98.5h-20.4l-7-19.6h-37.3
	L583.8,186.1z M621.3,147.2l-11.9-33.9l-11.8,33.9H621.3z"/>
<path class="st0" d="M171,85.6v100.6h-19.3v-55.7L138.1,159c-0.4,0.9-1.3,1.4-2.2,1.4h-15.2c-1,0-1.8-0.5-2.2-1.4l-13.6-28.5v55.7
	H85.5V85.6h19.3l23.4,49.2l23.4-49.2H171z"/>
<path class="st0" d="M204.3,171.3l-5.3,14.9h-19.3l26.4-74.8c0.3-1.1,1.2-1.7,2.3-1.7h12.9c1,0,1.9,0.7,2.3,1.6l26.3,74.9h-19.3
	l-5.3-14.9H204.3z M209.5,156.6H220l-5.3-15L209.5,156.6z"/>
<path class="st0" d="M319.9,186.2h-19.3l-12.3-22.1h-10.7v22.1h-19.3v-76.5h39.7c3.2,0,6.4,1.3,8.7,3.6l7.6,7.6
	c2.3,2.3,3.6,5.4,3.6,8.7v14.7c0,3.2-1.3,6.4-3.6,8.7l-8.2,8.2L319.9,186.2z M277.6,144.8h13.7c0.6,0,1.3-0.3,1.7-0.7l4.7-4.7
	c0.5-0.5,0.7-0.9,0.7-1.7v-1.5c0-0.6,0-1-0.7-1.7l-4.7-4.7c-0.5-0.5-1.1-0.7-1.7-0.7h-13.7V144.8z"/>
<path class="st1" d="M467.4,87.7c-0.4-1.3-1.7-2.1-3-2.1h-16.9c-1.4,0-2.6,0.9-3,2.3l-34.6,98.4h20.4l7-19.6h37.3l7,19.6H502
	L467.4,87.7z M444.4,147.2l11.8-33.9l11.9,33.9H444.4z"/>
</svg>
