<?xml version="1.0" encoding="UTF-8" standalone="no"?>
<!-- Created with Inkscape (http://www.inkscape.org/) -->

<svg
   xmlns:dc="http://purl.org/dc/elements/1.1/"
   xmlns:cc="http://creativecommons.org/ns#"
   xmlns:rdf="http://www.w3.org/1999/02/22-rdf-syntax-ns#"
   xmlns:svg="http://www.w3.org/2000/svg"
   xmlns="http://www.w3.org/2000/svg"
   xmlns:sodipodi="http://sodipodi.sourceforge.net/DTD/sodipodi-0.dtd"
   xmlns:inkscape="http://www.inkscape.org/namespaces/inkscape"
   width="62.66674mm"
   height="17.962315mm"
   viewBox="0 0 222.04751 63.645996"
   id="svg5270"
   version="1.1"
   inkscape:version="0.91 r13725"
   sodipodi:docname="Logo.svg">
  <defs
     id="defs5272">
    <clipPath
       clipPathUnits="userSpaceOnUse"
       id="clipPath168">
      <path
         d="m 533.156,783.504 48.088,0 0,17.208 -48.088,0 0,-17.208 z"
         id="path170"
         inkscape:connector-curvature="0" />
    </clipPath>
    <clipPath
       clipPathUnits="userSpaceOnUse"
       id="clipPath150">
      <path
         d="m 403.606,782.468 50.681,0 0,17.861 -50.681,0 0,-17.861 z"
         id="path152"
         inkscape:connector-curvature="0" />
    </clipPath>
    <clipPath
       clipPathUnits="userSpaceOnUse"
       id="clipPath136">
      <path
         d="m 0,0 595.276,0 0,841.89 L 0,841.89 0,0 Z"
         id="path138"
         inkscape:connector-curvature="0" />
    </clipPath>
    <clipPath
       clipPathUnits="userSpaceOnUse"
       id="clipPath78">
      <path
         d="m 459.211,785.512 69.02,0 0,11.775 -69.02,0 0,-11.775 z"
         id="path80"
         inkscape:connector-curvature="0" />
    </clipPath>
    <clipPath
       clipPathUnits="userSpaceOnUse"
       id="clipPath52">
      <path
         d="m 440.768,814.084 45.539,0 0,19.301 -45.539,0 0,-19.301 z"
         id="path54"
         inkscape:connector-curvature="0" />
    </clipPath>
    <clipPath
       clipPathUnits="userSpaceOnUse"
       id="clipPath42">
      <path
         d="m 497.622,814.084 46.461,0 0,19.301 -46.461,0 0,-19.301 z"
         id="path44"
         inkscape:connector-curvature="0" />
    </clipPath>
  </defs>
  <sodipodi:namedview
     id="base"
     pagecolor="#ffffff"
     bordercolor="#666666"
     borderopacity="1.0"
     inkscape:pageopacity="0.0"
     inkscape:pageshadow="2"
     inkscape:zoom="3.5442869"
     inkscape:cx="111.02374"
     inkscape:cy="31.822997"
     inkscape:document-units="px"
     inkscape:current-layer="layer1"
     showgrid="false"
     fit-margin-top="0"
     fit-margin-left="0"
     fit-margin-right="0"
     fit-margin-bottom="0"
     inkscape:window-width="1280"
     inkscape:window-height="751"
     inkscape:window-x="0"
     inkscape:window-y="0"
     inkscape:window-maximized="1" />
  <metadata
     id="metadata5275">
    <rdf:RDF>
      <cc:Work
         rdf:about="">
        <dc:format>image/svg+xml</dc:format>
        <dc:type
           rdf:resource="http://purl.org/dc/dcmitype/StillImage" />
        <dc:title></dc:title>
      </cc:Work>
    </rdf:RDF>
  </metadata>
  <g
     inkscape:label="Layer 1"
     inkscape:groupmode="layer"
     id="layer1"
     transform="translate(402.45232,-400.53925)">
    <g
       transform="matrix(1.25,0,0,-1.25,-906.95982,1442.2705)"
       id="g38">
      <g
         id="g40"
         clip-path="url(#clipPath42)">
        <path
           d="m 543.1786,829.4749 c -0.6692,0.2102 -1.3734,-0.1927 -1.572,-0.8988 l -3.6003,-12.7841 2e-4,0 c -0.1945,-0.7044 0.1863,-1.4431 0.8532,-1.6519 0.6672,-0.2093 1.3684,0.1899 1.57,0.892 l 2e-4,0 3.6003,12.7843 c 0.1992,0.7061 -0.1824,1.4486 -0.8516,1.6585 m -3.9979,-1.6504 c 0.1946,0.7045 -0.1862,1.4426 -0.8534,1.6519 -0.6669,0.2093 -1.368,-0.19 -1.5696,-0.8917 l -4e-4,0 -3.0157,-10.7046 c -0.0442,-0.1741 -0.1938,-0.3025 -0.3726,-0.3025 -0.1789,0 -0.3286,0.1284 -0.3727,0.3025 l -1.5475,5.4917 -0.003,0 -1.1813,4.1874 c -0.3153,1.14 -1.3114,1.9729 -2.4935,1.9729 -1.177,0 -2.1704,-0.8263 -2.4902,-1.9585 l -2.3455,-8.3171 0.002,0 -0.3876,-1.3764 c -0.0443,-0.1741 -0.1939,-0.3025 -0.3727,-0.3025 -0.179,0 -0.3287,0.1284 -0.373,0.3025 l -0.3876,1.3764 3e-4,0 -0.1679,0.595 -0.8088,2.8701 -6e-4,0 -1.3644,4.8376 c -0.3156,1.14 -1.3118,1.9729 -2.4936,1.9729 -1.1773,0 -2.1703,-0.8263 -2.4901,-1.9585 l -1.2764,-4.5267 -0.003,0 -2.0432,-7.2549 3e-4,0 c -0.1943,-0.7044 0.1865,-1.4431 0.8537,-1.6519 0.6671,-0.2093 1.368,0.1899 1.5696,0.892 l 3e-4,0 0.4196,1.4893 2.6392,0 0,10e-5 c 0.6952,0.004 1.2578,0.5993 1.2578,1.3334 0,0.7349 -0.5626,1.3303 -1.2578,1.3342 l 0,3e-4 -1.888,0 0.019,0.0671 3e-4,0 1.8256,6.4802 c 0.044,0.1738 0.1942,0.302 0.3727,0.302 0.1788,0 0.329,-0.1282 0.3728,-0.302 l 1.8256,-6.4802 10e-4,0 0.906,-3.2133 c 0.3199,-1.133 1.3132,-1.9587 2.4905,-1.9587 1.1818,0 2.1778,0.833 2.4936,1.9726 l 2.0761,7.3628 -10e-4,0 0.6529,2.3168 c 0.0437,0.1738 0.1939,0.302 0.3727,0.302 0.1785,0 0.3285,-0.1282 0.3727,-0.302 l 1.8258,-6.4802 0.003,0 0.906,-3.2133 c 0.3199,-1.133 1.3133,-1.9587 2.4903,-1.9587 1.1821,0 2.1782,0.833 2.4939,1.9726 l 3.3183,11.7674 -5e-4,0 z m -28.1405,3.6339 -0.8499,0.4271 0.3145,0.9363 -0.8869,-0.3323 -0.4046,0.8964 -0.4048,-0.8964 -0.8871,0.3319 0.3146,-0.9359 -0.8498,-0.4271 0.8498,-0.427 -0.3146,-0.9362 0.8871,0.3322 0.4048,-0.8968 0.4049,0.8968 0.8866,-0.3322 -0.3145,0.9362 0.8499,0.427 z m -3.9824,-2.921 c -0.0399,0.0263 -0.0796,0.0518 -0.1196,0.0768 -0.1195,0.0765 -0.2277,0.139 -0.3251,0.191 -1.0955,0.598 -2.3705,0.8565 -3.6849,0.6616 -3.3709,-0.5002 -5.7196,-3.7888 -5.2459,-7.3462 0.474,-3.557 3.5906,-6.0349 6.9619,-5.5349 1.3871,0.2057 2.6012,0.8842 3.5166,1.8592 0.0739,0.0789 0.2059,0.2079 0.258,0.2782 0.0714,0.0873 -0.0229,0.1143 -0.094,0.0505 -0.0501,-0.0445 -0.2068,-0.182 -0.2943,-0.2642 -0.051,-0.0476 -0.1293,-0.1336 -0.2236,-0.0911 -0.008,0.004 -0.1741,0.0921 -0.2541,0.1273 -0.0926,0.0427 -0.1786,0.0758 -0.2777,0.1068 -0.4153,0.1377 -0.9085,0.2119 -1.4451,0.2114 -0.1025,-10e-5 -0.2013,0.0596 -0.1837,0.1912 0.0935,0.6929 0.1337,1.4122 0.116,2.1478 -0.003,0.1406 -0.0254,0.2391 0.1202,0.2911 0.1217,0.0438 0.2426,0.0891 0.3627,0.1364 0.1835,0.0724 0.4233,0.1554 0.4256,0.2227 0.002,0.0512 -0.0943,0.009 -0.4499,-0.0996 -0.1165,-0.0359 -0.2336,-0.07 -0.3513,-0.1023 -0.0861,-0.0237 -0.1248,0.0181 -0.1315,0.1245 -0.0312,0.4808 -0.0869,0.9676 -0.1686,1.4579 -0.2691,1.611 -0.7912,3.0847 -1.4931,4.3546 -0.0304,0.0547 -0.0431,0.1097 0.0416,0.142 0.2231,0.0856 0.4317,0.1814 0.6238,0.2861 0.1132,0.0616 0.1363,0.0335 0.2137,-0.0105 0.5254,-0.2986 1.0135,-0.6808 1.448,-1.1478 1.3849,-1.487 1.9501,-3.5291 1.7307,-5.5798 -0.0306,-0.2867 -0.0727,-0.5275 -0.0306,-0.5365 0.0475,-0.01 0.1123,0.3408 0.1461,0.5173 0.4372,2.2729 -0.0892,4.6103 -1.628,6.2631 -0.3065,0.3285 -0.6398,0.6141 -0.9937,0.8579 -0.0962,0.0661 -0.2062,0.0942 -0.0685,0.2327 0.0188,0.0192 0.0369,0.0382 0.0551,0.0575 0.0195,0.018 0.0451,0.0455 0.0785,0.0882 0,0 4e-4,9e-4 7e-4,0.001 0.0111,0.0127 0.0216,0.0253 0.0323,0.0385 0.0267,0.0281 0.067,0.062 0.1115,0.0666 0.0737,0.007 0.2657,-0.022 0.675,-0.2054 0.4098,-0.1837 0.5044,-0.2415 0.5537,-0.2415 0.0363,0 0.0552,0.0772 -0.009,0.1195 m -4.1629,-10.1842 c -0.7289,0.5636 -1.3371,1.289 -1.7694,2.1647 -0.004,0.009 -0.008,0.0172 -0.0128,0.0258 -0.0635,0.131 -3e-4,0.1955 0.1231,0.1932 1.3026,-0.0243 2.5636,0.1426 3.751,0.4725 0.1298,0.0366 0.1857,0.0294 0.1958,-0.1179 0.0473,-0.6889 0.0434,-1.3655 -0.007,-2.0224 -0.0142,-0.1854 -0.0257,-0.2424 -0.197,-0.2663 -0.0962,-0.0136 -0.1931,-0.0292 -0.2907,-0.0471 -0.511,-0.0951 -0.9866,-0.2453 -1.4072,-0.435 -0.1609,-0.0724 -0.2376,-0.0818 -0.3861,0.0325 m -3.5591,2.5547 c 0.1942,-0.032 0.39,-0.0614 0.5879,-0.0838 0.0722,-0.008 0.1439,-0.0156 0.2158,-0.0222 0.1768,-0.0163 0.1741,-0.0351 0.2651,-0.2262 0.008,-0.0175 0.0168,-0.0349 0.0252,-0.0521 0.5,-1.0242 1.24,-1.844 2.1322,-2.4398 0.0612,-0.0414 0.0557,-0.1217 -0.007,-0.1636 -0.0989,-0.0673 -0.1928,-0.1368 -0.2803,-0.2087 -0.0813,-0.0664 -0.1338,-0.0583 -0.2298,-0.0104 -1.2156,0.6042 -2.2112,1.6533 -2.7718,2.9788 -0.0691,0.1639 -0.0418,0.2455 0.063,0.228 m 1.3785,6.1353 c -0.9057,-1.6929 -1.1913,-3.6233 -0.7059,-5.3977 0.0498,-0.1829 0.0237,-0.2646 -0.1548,-0.2312 -0.2478,0.0465 -0.4929,0.0997 -0.7351,0.1596 -0.1511,0.0371 -0.1587,0.0293 -0.2128,0.2931 -0.0287,0.1393 -0.0528,0.2811 -0.072,0.4244 -0.2549,1.9131 0.3765,3.74 1.563,5.0227 0.0302,0.033 0.0862,0.0902 0.2025,0.0692 0.0648,-0.0117 0.1305,-0.0255 0.1978,-0.039 0.0809,-0.0172 -0.031,-0.2042 -0.0827,-0.3011 m 4.306,-4.5506 c 0.0462,-0.2763 0.0814,-0.5509 0.11,-0.824 0.0159,-0.1497 0,-0.1983 -0.1526,-0.2289 -1.1363,-0.228 -2.3288,-0.3118 -3.5544,-0.2269 -0.1508,0.0101 -0.3007,0.0232 -0.4495,0.0388 -0.1311,0.0134 -0.1794,0.0604 -0.2393,0.2592 -0.551,1.8359 -0.2642,3.851 0.6909,5.6061 0.0266,0.049 0.0645,0.1565 0.2741,0.1576 0.385,0.003 0.7941,0.0424 1.2138,0.1203 0.016,0.003 0.0317,0.006 0.0474,0.009 0.1786,0.0346 0.2435,-0.003 0.3245,-0.1371 0.8245,-1.3598 1.4357,-2.9823 1.7351,-4.7741"
           style="fill:#26b9f1;fill-opacity:1;fill-rule:nonzero;stroke:none"
           id="path46"
           inkscape:connector-curvature="0" />
      </g>
    </g>
    <g
       transform="matrix(1.25,0,0,-1.25,-906.95982,1442.2705)"
       id="g48">
      <g
         id="g50"
         clip-path="url(#clipPath52)">
        <path
           d="m 480.0108,832.8856 c -3.3572,1.0945 -6.355,0.2056 -6.5955,-0.8728 -0.3818,-1.7219 2.0824,-2.8459 3.5015,-3.3451 0.2124,0.6594 0.4275,1.2575 0.6376,1.7834 -1.0197,0.339 -2.6995,1.0385 -2.459,1.914 0.2225,0.8248 2.1074,0.8168 3.4203,0.5845 0.1037,-0.0241 0.2099,-0.0454 0.3138,-0.0719 4.5638,-1.1533 7.0635,-5.8624 5.968,-10.6568 -1.0979,-4.7971 -5.3761,-7.7494 -9.94,-6.5963 -0.1974,0.0508 -0.63,0.1842 -0.6528,0.1924 -0.002,-0.0161 -0.0101,-0.0856 0.0202,-0.1096 0.4453,-0.2001 0.7111,-0.307 1.3435,-0.4617 4.6473,-1.1612 9.3809,1.9006 10.4966,6.7751 1.0904,4.7624 -1.609,9.5461 -6.0542,10.8648"
           style="fill:#1165b2;fill-opacity:1;fill-rule:nonzero;stroke:none"
           id="path56"
           inkscape:connector-curvature="0" />
        <path
           d="m 475.8645,824.8371 c 0.1542,0.6673 0.3187,1.3135 0.4858,1.9274 -3.3979,1.3108 -4.2149,2.9124 -4.3186,3.9268 -0.0735,0.7394 0.4933,1.3588 0.4933,1.3588 -0.792,-0.5579 -1.4826,-1.1265 -1.566,-1.6338 -0.491,-3.0326 2.96,-4.8318 4.9055,-5.5792"
           style="fill:#1165b2;fill-opacity:1;fill-rule:nonzero;stroke:none"
           id="path58"
           inkscape:connector-curvature="0" />
        <path
           d="m 475.4267,822.827 c -3.5445,1.42 -5.0092,3.2567 -5.5278,5.0106 -0.2731,0.9264 0.0482,1.7432 0.0482,1.7432 -0.6275,-0.9743 -0.9412,-1.9808 -0.9412,-1.9808 -0.0583,-0.1976 -0.0505,-0.9851 0.1365,-1.551 0.8806,-2.6934 3.7849,-4.3966 5.9579,-5.2323 0.0886,0.6088 0.1974,1.343 0.3264,2.0103"
           style="fill:#1165b2;fill-opacity:1;fill-rule:nonzero;stroke:none"
           id="path60"
           inkscape:connector-curvature="0" />
        <path
           d="m 451.4613,816.7886 c 0,-0.8622 0.5818,-1.6177 1.4419,-1.6177 0.8982,0 1.4243,0.8329 1.4243,1.6122 0,0.793 -0.5261,1.6205 -1.4292,1.6205 -0.8855,0 -1.437,-0.7794 -1.437,-1.6071 l 0,-0.008 z m -1.1282,-0.0399 c 0,1.6655 1.2015,2.7442 2.56,2.7442 1.4751,0 2.5603,-1.2227 2.5603,-2.7043 0,-1.4789 -1.0803,-2.7043 -2.5678,-2.7043 -1.495,0 -2.5525,1.2602 -2.5525,2.6562 l 0,0.008 z"
           style="fill:#585551;fill-opacity:1;fill-rule:nonzero;stroke:none"
           id="path62"
           inkscape:connector-curvature="0" />
        <path
           d="m 443.0977,817.0315 2.029,0 0,-2.6428 c -0.5844,-0.1495 -1.0702,-0.2135 -1.609,-0.2135 -0.8223,0 -1.437,0.1843 -1.9202,0.5659 -0.5414,0.4404 -0.8298,1.1265 -0.8298,1.9594 0,1.6338 1.1181,2.7068 2.8106,2.7068 0.5391,0 0.9943,-0.0933 1.5357,-0.3201 l 0,-1.0946 c -0.4782,0.2775 -0.8956,0.3923 -1.4292,0.3923 -1.0702,0 -1.7381,-0.6407 -1.7381,-1.671 0,-0.9825 0.5741,-1.5565 1.5433,-1.5565 0.187,0 0.3769,0.0109 0.559,0.0429 l 0,0.8275 -0.9513,0 0,1.0037 z"
           style="fill:#585551;fill-opacity:1;fill-rule:nonzero;stroke:none"
           id="path64"
           inkscape:connector-curvature="0" />
        <path
           d="m 446.3942,819.3059 3.0789,0 0,-1.001 -1.953,0 0,-0.9745 1.8999,0 0,-1.001 -1.8999,0 0,-1.0836 1.9934,0 0,-1.0013 -3.1193,0 0,5.0614 z"
           style="fill:#585551;fill-opacity:1;fill-rule:nonzero;stroke:none"
           id="path66"
           inkscape:connector-curvature="0" />
        <path
           d="m 469.3802,817.0449 c 0.1266,-0.0268 0.2075,-0.0268 0.301,-0.0268 0.7362,0 1.0246,0.1921 1.0246,0.6834 0,0.4778 -0.2959,0.7074 -0.8904,0.7074 -0.0935,0 -0.2023,0 -0.3137,0.0107 l -0.1215,-0.0107 0,-1.364 z m -1.0803,2.2423 0.1088,0.008 c 0.43,0.0347 0.9437,0.0509 1.308,0.0509 0.7209,0 1.1663,-0.1014 1.5155,-0.3658 0.3769,-0.2695 0.5919,-0.7315 0.5919,-1.2574 0,-0.6539 -0.2759,-1.0943 -0.8753,-1.3881 0.1365,-0.2108 0.2505,-0.3816 0.4453,-0.6539 0.3692,-0.5232 0.7816,-1.0653 1.0448,-1.3802 l 0.0606,-0.0694 c 0,0 -1.1787,-0.2589 -1.6038,0.3125 -0.4402,0.5899 -0.6959,1.0089 -0.9842,1.5001 l -0.0557,0.0935 -0.1746,0 c -0.0453,0 -0.1213,0 -0.2073,0.005 l -0.0937,0 0,-1.8979 -1.0803,0 0,5.0426 z"
           style="fill:#585551;fill-opacity:1;fill-rule:nonzero;stroke:none"
           id="path68"
           inkscape:connector-curvature="0" />
        <path
           d="m 462.1627,814.4982 c -0.0354,0.7528 -0.0531,1.1371 -0.0886,1.7191 -0.0202,0.307 -0.0404,0.6274 -0.0681,0.9611 -0.0205,0.3417 -0.0329,0.5257 -0.0534,0.7395 l -0.101,1.2172 -0.0202,0.1922 -1.2194,0 c -0.3264,0 -0.4124,-0.0801 -0.5694,-0.5339 -0.2124,-0.6112 -0.5363,-1.9381 -0.6702,-2.4774 l -0.2153,-0.9395 -0.215,0.9395 c -0.1365,0.5393 -0.4604,1.8662 -0.6754,2.4774 -0.1544,0.4538 -0.243,0.5339 -0.5668,0.5339 l -1.2194,0 -0.0202,-0.1922 -0.101,-1.2172 c -0.0203,-0.2138 -0.0329,-0.3978 -0.0532,-0.7395 -0.0279,-0.3337 -0.0481,-0.6541 -0.0683,-0.9611 -0.0329,-0.582 -0.0532,-0.9663 -0.0861,-1.7191 l -0.0152,-0.251 1.0448,0 0.008,0.1307 c 0.0202,0.6142 0.0404,1.124 0.0886,2.0395 0.0454,0.9745 0.0581,1.4204 0.0581,1.7861 0,0.1413 0.005,0.1974 0.005,0.2348 0.048,-0.1574 0.0962,-0.3042 0.1366,-0.4617 0.0404,-0.1522 0.0935,-0.3365 0.1088,-0.3846 l 0.2023,-0.6834 c 0.0811,-0.2774 0.1671,-0.582 0.3238,-1.1317 0.1342,-0.4753 0.2632,-0.9532 0.3643,-1.3214 l 0.0533,-0.2083 0.6249,0 0.002,0 0.6251,0 0.0531,0.2083 c 0.1037,0.3682 0.2301,0.8461 0.3643,1.3214 0.1567,0.5497 0.2427,0.8543 0.3238,1.1317 l 0.2023,0.6834 c 0.0153,0.0481 0.0684,0.2324 0.1062,0.3846 0.043,0.1575 0.0912,0.3043 0.1392,0.4617 0,-0.0374 0.003,-0.0935 0.003,-0.2348 0,-0.3657 0.0126,-0.8116 0.0632,-1.7861 0.0456,-0.9155 0.0658,-1.4253 0.086,-2.0395 l 0.008,-0.1307 1.0448,0 -0.0127,0.251 z"
           style="fill:#585551;fill-opacity:1;fill-rule:nonzero;stroke:none"
           id="path70"
           inkscape:connector-curvature="0" />
        <path
           d="m 465.2138,816.535 0,0 -0.5668,0 0.0684,0.2056 c 0,0 0.4023,1.1718 0.4984,1.5297 0.0961,-0.3579 0.501,-1.5297 0.501,-1.5297 l 0.0658,-0.2056 -0.5668,0 z m 2.4181,-2.077 c -0.2148,0.6569 -0.5259,1.4789 -0.9003,2.4455 -0.1696,0.4136 -0.3189,0.79 -0.4655,1.1396 -0.0482,0.1203 -0.0964,0.2406 -0.2759,0.6596 l -0.0961,0.2296 -0.0933,0.2187 -0.0759,0.1709 -0.5111,0 -0.5111,0 -0.0759,-0.1709 -0.0935,-0.2187 -0.0936,-0.2296 c -0.1821,-0.419 -0.2303,-0.5393 -0.2759,-0.6596 -0.1492,-0.3496 -0.2984,-0.726 -0.4655,-1.1396 -0.3769,-0.9666 -0.6881,-1.7886 -0.9031,-2.4455 l -0.0733,-0.2134 1.1588,0 0.0326,0.1282 c 0.1065,0.3337 0.2153,0.6538 0.3567,1.0863 l 0.0407,0.1309 0.9031,0 0.9028,0 0.0407,-0.1309 c 0.1415,-0.4325 0.2503,-0.7526 0.3591,-1.0863 l 0.0329,-0.1282 1.1562,0 -0.0736,0.2134 z"
           style="fill:#585551;fill-opacity:1;fill-rule:nonzero;stroke:none"
           id="path72"
           inkscape:connector-curvature="0" />
      </g>
    </g>
    <g
       transform="matrix(1.25,0,0,-1.25,-906.95982,1442.2705)"
       id="g74">
      <g
         id="g76"
         clip-path="url(#clipPath78)">
        <path
           d="m 474.5632,794.076 0.766,0 0,-2.4974 c 0,-0.5763 0.0368,-1.2427 1.0295,-1.2427 0.9927,0 1.0295,0.6664 1.0295,1.2427 l 0,2.4974 0.7659,0 0,-2.7435 c 0,-1.0986 -0.717,-1.6449 -1.7954,-1.6449 -1.0786,0 -1.7955,0.5463 -1.7955,1.6449 l 0,2.7435 z"
           style="fill:#231f20;fill-opacity:1;fill-rule:nonzero;stroke:none"
           id="path82"
           inkscape:connector-curvature="0" />
        <path
           d="m 478.9629,792.8933 0.6618,0 0,-0.4562 0.0123,-0.012 c 0.2082,0.3422 0.5698,0.5523 0.9866,0.5523 0.6863,0 1.1213,-0.3602 1.1213,-1.0566 l 0,-2.1311 -0.6985,0 0,1.951 c -0.0123,0.4863 -0.2083,0.6964 -0.619,0.6964 -0.4657,0 -0.766,-0.3602 -0.766,-0.8165 l 0,-1.8309 -0.6985,0 0,3.1036 z"
           style="fill:#231f20;fill-opacity:1;fill-rule:nonzero;stroke:none"
           id="path84"
           inkscape:connector-curvature="0" />
        <path
           d="m 482.5231,792.8933 0.6986,0 0,-3.1036 -0.6986,0 0,3.1036 z m 0,1.1826 0.6986,0 0,-0.6483 -0.6986,0 0,0.6483 z"
           style="fill:#231f20;fill-opacity:1;fill-rule:nonzero;stroke:none"
           id="path86"
           inkscape:connector-curvature="0" />
        <path
           d="m 483.6935,792.8933 0.7598,0 0.8028,-2.3832 0.0122,0 0.7722,2.3832 0.7231,0 -1.1337,-3.1036 -0.7843,0 -1.1521,3.1036 z"
           style="fill:#231f20;fill-opacity:1;fill-rule:nonzero;stroke:none"
           id="path88"
           inkscape:connector-curvature="0" />
        <path
           d="m 487.7563,791.6147 c 0.0184,0.4622 0.3492,0.8224 0.8334,0.8224 0.4718,0 0.772,-0.3902 0.7966,-0.8224 l -1.63,0 z m 2.3286,-0.4503 c 0.1164,0.9305 -0.4964,1.813 -1.4952,1.813 -0.9438,0 -1.532,-0.7564 -1.532,-1.6389 0,-0.9545 0.5576,-1.6329 1.5503,-1.6329 0.6925,0 1.2808,0.3783 1.434,1.0566 l -0.6618,0 c -0.1226,-0.3422 -0.3677,-0.5163 -0.7722,-0.5163 -0.5821,0 -0.8517,0.4322 -0.8517,0.9185 l 2.3286,0 z"
           style="fill:#231f20;fill-opacity:1;fill-rule:nonzero;stroke:none"
           id="path90"
           inkscape:connector-curvature="0" />
        <path
           d="m 490.6425,792.8933 0.6556,0 0,-0.6003 0.0123,0 c 0.0796,0.3302 0.4964,0.6844 0.9254,0.6844 0.1593,0 0.2022,-0.012 0.2634,-0.018 l 0,-0.6604 c -0.0981,0.012 -0.2022,0.03 -0.3002,0.03 -0.478,0 -0.858,-0.3782 -0.858,-1.0625 l 0,-1.4768 -0.6985,0 0,3.1036 z"
           style="fill:#231f20;fill-opacity:1;fill-rule:nonzero;stroke:none"
           id="path92"
           inkscape:connector-curvature="0" />
        <path
           d="m 493.351,790.7862 c 0.0367,-0.3962 0.3431,-0.5403 0.7169,-0.5403 0.2635,0 0.7231,0.054 0.7047,0.4083 -0.0184,0.3602 -0.527,0.4021 -1.0356,0.5162 -0.5148,0.108 -1.0173,0.2881 -1.0173,0.9185 0,0.6783 0.7476,0.8884 1.3237,0.8884 0.6495,0 1.2378,-0.2641 1.3236,-0.9544 l -0.7292,0 c -0.0613,0.3241 -0.3371,0.4141 -0.6435,0.4141 -0.2022,0 -0.5759,-0.0479 -0.5759,-0.3181 0,-0.3361 0.5147,-0.3842 1.0294,-0.4983 0.5086,-0.114 1.0234,-0.2941 1.0234,-0.9064 0,-0.7385 -0.7599,-1.0086 -1.4156,-1.0086 -0.7965,0 -1.3909,0.3482 -1.4032,1.0806 l 0.6986,0 z"
           style="fill:#231f20;fill-opacity:1;fill-rule:nonzero;stroke:none"
           id="path94"
           inkscape:connector-curvature="0" />
        <path
           d="m 496.0472,792.8933 0.6986,0 0,-3.1036 -0.6986,0 0,3.1036 z m 0,1.1826 0.6986,0 0,-0.6483 -0.6986,0 0,0.6483 z"
           style="fill:#231f20;fill-opacity:1;fill-rule:nonzero;stroke:none"
           id="path96"
           inkscape:connector-curvature="0" />
        <path
           d="m 497.2115,792.8933 0.527,0 0,0.9305 0.6985,0 0,-0.9305 0.6312,0 0,-0.5102 -0.6312,0 0,-1.657 c 0,-0.2821 0.0245,-0.4261 0.3371,-0.4261 0.098,0 0.1961,0 0.2941,0.024 l 0,-0.5284 c -0.1532,-0.0119 -0.3003,-0.0359 -0.4535,-0.0359 -0.7292,0 -0.864,0.2761 -0.8762,0.7924 l 0,1.831 -0.527,0 0,0.5102 z"
           style="fill:#231f20;fill-opacity:1;fill-rule:nonzero;stroke:none"
           id="path98"
           inkscape:connector-curvature="0" />
        <path
           d="m 501.5499,790.8342 c 0,-0.4322 -0.478,-0.5883 -0.7844,-0.5883 -0.2451,0 -0.6434,0.09 -0.6434,0.3962 0,0.3602 0.2697,0.4683 0.5699,0.5163 0.3064,0.054 0.6434,0.048 0.8579,0.1861 l 0,-0.5103 z m -0.4351,2.5514 0.6986,0 0,0.6483 -0.6986,0 0,-0.6483 z m -0.3553,0.6483 -0.6986,0 0,-0.6483 0.6986,0 0,0.6483 z m 1.489,-1.957 c 0,0.6543 -0.6495,0.9005 -1.2685,0.9005 -0.6986,0 -1.391,-0.2341 -1.44,-1.0326 l 0.6986,0 c 0.0307,0.3362 0.3064,0.4923 0.6985,0.4923 0.282,0 0.6557,-0.066 0.6557,-0.4202 0,-0.4022 -0.4473,-0.3483 -0.9498,-0.4383 -0.5882,-0.066 -1.2195,-0.1921 -1.2195,-0.9665 0,-0.6063 0.5148,-0.9065 1.0847,-0.9065 0.3738,0 0.8211,0.1141 1.0969,0.3783 0.0552,-0.2822 0.2574,-0.3783 0.5392,-0.3783 0.1165,0 0.337,0.042 0.4412,0.0781 l 0,0.4742 c -0.0735,-0.012 -0.1286,-0.012 -0.1715,-0.012 -0.1287,0 -0.1655,0.0661 -0.1655,0.2342 l 0,1.5968 z"
           style="fill:#231f20;fill-opacity:1;fill-rule:nonzero;stroke:none"
           id="path100"
           inkscape:connector-curvature="0" />
        <path
           d="m 502.7081,792.8933 0.527,0 0,0.9305 0.6986,0 0,-0.9305 0.6311,0 0,-0.5102 -0.6311,0 0,-1.657 c 0,-0.2821 0.0244,-0.4261 0.337,-0.4261 0.0981,0 0.1961,0 0.2941,0.024 l 0,-0.5284 c -0.1532,-0.0119 -0.3003,-0.0359 -0.4535,-0.0359 -0.7291,0 -0.8639,0.2761 -0.8762,0.7924 l 0,1.831 -0.527,0 0,0.5102 z"
           style="fill:#231f20;fill-opacity:1;fill-rule:nonzero;stroke:none"
           id="path102"
           inkscape:connector-curvature="0" />
        <path
           d="m 507.6839,791.7407 1.3542,0 c 0.4658,0 0.7354,-0.2401 0.7354,-0.6603 0,-0.4323 -0.2696,-0.6784 -0.7354,-0.6784 l -1.3542,0 0,1.3387 z m -0.766,-1.951 2.0099,0 c 1.1337,0 1.6117,0.5222 1.6117,1.1946 0,0.5824 -0.288,0.9905 -0.8212,1.1046 l 0,0.012 c 0.3983,0.1681 0.6251,0.4802 0.6251,0.9125 0,0.7143 -0.5148,1.0625 -1.2991,1.0625 l -2.1264,0 0,-4.2862 z m 0.766,3.6739 1.2501,0 c 0.4167,0 0.6434,-0.1561 0.6434,-0.5883 0,-0.3842 -0.2758,-0.5943 -0.6434,-0.5943 l -1.2501,0 0,1.1826 z"
           style="fill:#231f20;fill-opacity:1;fill-rule:nonzero;stroke:none"
           id="path104"
           inkscape:connector-curvature="0" />
        <path
           d="m 511.1583,792.8933 0.6557,0 0,-0.6003 0.0123,0 c 0.0796,0.3302 0.4963,0.6844 0.9253,0.6844 0.1594,0 0.2022,-0.012 0.2635,-0.018 l 0,-0.6604 c -0.0981,0.012 -0.2022,0.03 -0.3003,0.03 -0.4779,0 -0.8579,-0.3782 -0.8579,-1.0625 l 0,-1.4768 -0.6986,0 0,3.1036 z"
           style="fill:#231f20;fill-opacity:1;fill-rule:nonzero;stroke:none"
           id="path106"
           inkscape:connector-curvature="0" />
        <path
           d="m 513.776,791.6147 c 0.0183,0.4622 0.3492,0.8224 0.8334,0.8224 0.4718,0 0.7721,-0.3902 0.7966,-0.8224 l -1.63,0 z m 2.3285,-0.4503 c 0.1165,0.9305 -0.4963,1.813 -1.4951,1.813 -0.9437,0 -1.532,-0.7564 -1.532,-1.6389 0,-0.9545 0.5576,-1.6329 1.5503,-1.6329 0.6925,0 1.2808,0.3783 1.4339,1.0566 l -0.6618,0 c -0.1225,-0.3422 -0.3676,-0.5163 -0.7721,-0.5163 -0.5821,0 -0.8517,0.4322 -0.8517,0.9185 l 2.3285,0 z"
           style="fill:#231f20;fill-opacity:1;fill-rule:nonzero;stroke:none"
           id="path108"
           inkscape:connector-curvature="0" />
        <path
           d="m 516.6622,792.8933 0.6618,0 0,-0.4322 0.0184,0 c 0.2083,0.3062 0.4719,0.5163 0.9743,0.5163 0.3861,0 0.7476,-0.1621 0.8886,-0.5163 0.2328,0.3182 0.533,0.5163 0.9927,0.5163 0.6679,0 1.0601,-0.2882 1.0601,-1.0446 l 0,-2.1431 -0.6986,0 0,1.8129 c 0,0.4923 -0.0306,0.8345 -0.576,0.8345 -0.4718,0 -0.6741,-0.3062 -0.6741,-0.8285 l 0,-1.8189 -0.6985,0 0,1.993 c 0,0.4263 -0.1348,0.6544 -0.5577,0.6544 -0.3615,0 -0.6925,-0.2882 -0.6925,-0.8044 l 0,-1.843 -0.6985,0 0,3.1036 z"
           style="fill:#231f20;fill-opacity:1;fill-rule:nonzero;stroke:none"
           id="path110"
           inkscape:connector-curvature="0" />
        <path
           d="m 522.5633,791.6147 c 0.0184,0.4622 0.3493,0.8224 0.8334,0.8224 0.4718,0 0.7721,-0.3902 0.7966,-0.8224 l -1.63,0 z m 2.3286,-0.4503 c 0.1164,0.9305 -0.4964,1.813 -1.4952,1.813 -0.9437,0 -1.5319,-0.7564 -1.5319,-1.6389 0,-0.9545 0.5575,-1.6329 1.5502,-1.6329 0.6925,0 1.2808,0.3783 1.434,1.0566 l -0.6618,0 c -0.1226,-0.3422 -0.3677,-0.5163 -0.7722,-0.5163 -0.5821,0 -0.8517,0.4322 -0.8517,0.9185 l 2.3286,0 z"
           style="fill:#231f20;fill-opacity:1;fill-rule:nonzero;stroke:none"
           id="path112"
           inkscape:connector-curvature="0" />
        <path
           d="m 525.4495,792.8933 0.6618,0 0,-0.4562 0.0123,-0.012 c 0.2083,0.3422 0.5699,0.5523 0.9866,0.5523 0.6863,0 1.1213,-0.3602 1.1213,-1.0566 l 0,-2.1311 -0.6985,0 0,1.951 c -0.0123,0.4863 -0.2083,0.6964 -0.619,0.6964 -0.4656,0 -0.766,-0.3602 -0.766,-0.8165 l 0,-1.8309 -0.6985,0 0,3.1036 z"
           style="fill:#231f20;fill-opacity:1;fill-rule:nonzero;stroke:none"
           id="path114"
           inkscape:connector-curvature="0" />
        <path
           d="m 463.5822,791.9003 c -10e-4,-1.1815 0.9934,-2.1071 2.1863,-2.1071 1.2034,0 2.1841,0.9267 2.1841,2.1071 l 0,5.3856 -1.0925,0 0,-5.3856 c 0,-0.5901 -0.4889,-1.0378 -1.0916,-1.0378 -0.5841,0 -1.0935,0.4654 -1.0936,1.0378 l 0,3.241 -1.0927,0 0,-3.241 z"
           style="fill:#da193b;fill-opacity:1;fill-rule:nonzero;stroke:none"
           id="path116"
           inkscape:connector-curvature="0" />
        <path
           d="m 459.2117,796.2155 1.09266,0 0,1.07042 -1.09266,0 0,-1.07042 z"
           style="fill:#da193b;fill-opacity:1;fill-rule:nonzero;stroke:none"
           id="path118"
           inkscape:connector-curvature="0" />
        <path
           d="m 460.3044,795.1452 1.09266,0 0,1.07042 -1.09266,0 0,-1.07042 z"
           style="fill:#da193b;fill-opacity:1;fill-rule:nonzero;stroke:none"
           id="path120"
           inkscape:connector-curvature="0" />
        <path
           d="m 461.397,796.2155 1.0926,0 0,1.07042 -1.0926,0 0,-1.07042 z"
           style="fill:#da193b;fill-opacity:1;fill-rule:nonzero;stroke:none"
           id="path122"
           inkscape:connector-curvature="0" />
        <path
           d="m 463.5822,796.2156 1.09266,0 0,1.07042 -1.09266,0 0,-1.07042 z"
           style="fill:#da193b;fill-opacity:1;fill-rule:nonzero;stroke:none"
           id="path124"
           inkscape:connector-curvature="0" />
        <path
           d="m 462.4896,795.1452 1.0926,0 0,1.07042 -1.0926,0 0,-1.07042 z"
           style="fill:#da193b;fill-opacity:1;fill-rule:nonzero;stroke:none"
           id="path126"
           inkscape:connector-curvature="0" />
        <path
           d="m 472.3233,797.2834 0,-5.383 c 0,-3.5341 -2.9384,-6.3887 -6.5496,-6.3887 -3.6104,0 -6.562,2.8541 -6.562,6.3887 l 0,3.2445 1.0934,-0.003 -8e-4,-3.242 c 0,-2.9449 2.4596,-5.3208 5.4694,-5.3208 3.0094,0 5.4568,2.3759 5.4568,5.3208 l 0,5.3856 1.0928,-0.003 z"
           style="fill:#da193b;fill-opacity:1;fill-rule:nonzero;stroke:none"
           id="path128"
           inkscape:connector-curvature="0" />
        <path
           d="m 469.0453,797.286 0,-5.3856 c 0,-1.7692 -1.4727,-3.1775 -3.2791,-3.1775 -1.8075,0 -3.2766,1.4083 -3.2766,3.1775 l 0,3.2461 -1.0926,0 0,-3.2461 c 0,-2.3593 1.9605,-4.248 4.3692,-4.248 2.4088,0 4.3718,1.8887 4.3718,4.248 l 0,5.3849 -1.0927,7e-4 z"
           style="fill:#da193b;fill-opacity:1;fill-rule:nonzero;stroke:none"
           id="path130"
           inkscape:connector-curvature="0" />
      </g>
    </g>
    <g
       transform="matrix(1.25,0,0,-1.25,-906.95982,1442.2705)"
       id="g132">
      <g
         id="g134"
         clip-path="url(#clipPath136)">
        <path
           d="m 403.606,800.3294 25.3402,0 0,-9.0198 -25.3402,0 0,9.0198 z"
           style="fill:#231f20;fill-opacity:1;fill-rule:nonzero;stroke:none"
           id="path140"
           inkscape:connector-curvature="0" />
        <path
           d="m 420.3305,800.3294 0.3379,0 0,-6.4296 -0.3379,0 0,6.4296 z"
           style="fill:#ffffff;fill-opacity:1;fill-rule:nonzero;stroke:none"
           id="path142"
           inkscape:connector-curvature="0" />
        <path
           d="m 411.8841,797.8295 0.3379,0 0,-6.5199 -0.3379,0 0,6.5199 z"
           style="fill:#ffffff;fill-opacity:1;fill-rule:nonzero;stroke:none"
           id="path144"
           inkscape:connector-curvature="0" />
      </g>
    </g>
    <g
       transform="matrix(1.25,0,0,-1.25,-906.95982,1442.2705)"
       id="g146">
      <g
         id="g148"
         clip-path="url(#clipPath150)">
        <path
           d="m 408.0131,793.855 c -1.1208,0 -1.9077,0.8215 -1.9077,2.0221 0,1.1501 0.8338,1.9971 1.8985,1.9971 0.5228,0 1.0739,-0.1293 1.4179,-0.6175 l -0.5228,-0.548 c -0.1369,0.2344 -0.4759,0.3984 -0.8859,0.3984 -0.5746,0 -1.0833,-0.4731 -1.0833,-1.23 0,-0.7173 0.4239,-1.2699 1.1212,-1.2699 0.2024,0 0.6639,0.0444 0.9371,0.5723 l 0.5656,-0.4483 c -0.4193,-0.7169 -1.041,-0.8762 -1.5406,-0.8762"
           style="fill:#ffffff;fill-opacity:1;fill-rule:nonzero;stroke:none"
           id="path154"
           inkscape:connector-curvature="0" />
        <path
           d="m 424.7399,793.8678 c -1.0788,0 -1.522,0.7018 -1.522,1.5731 l 0,2.3313 0.8294,0 0,-2.2609 c 0,-0.598 0.1978,-0.8669 0.6971,-0.8669 0.4948,0 0.655,0.2741 0.655,0.8669 l 0,2.2609 0.8287,0 0,-2.3313 c 0,-0.8264 -0.4048,-1.5731 -1.4882,-1.5731"
           style="fill:#ffffff;fill-opacity:1;fill-rule:nonzero;stroke:none"
           id="path156"
           inkscape:connector-curvature="0" />
        <path
           d="m 417.2162,793.9071 0,0 -0.3817,0.891 -1.1164,0 -0.3816,-0.891 -0.8809,0 1.8206,4.0935 1.8208,-4.0935 -0.8808,0 z m -0.94,2.246 -0.3227,-0.7222 0.6454,0 -0.3227,0.7222 z"
           style="fill:#ffffff;fill-opacity:1;fill-rule:nonzero;stroke:none"
           id="path158"
           inkscape:connector-curvature="0" />
        <path
           d="m 403.6061,791.3991 50.6803,0 0,-8.9309 -50.6803,0 0,8.9309 z"
           style="fill:#97168f;fill-opacity:1;fill-rule:nonzero;stroke:none"
           id="path160"
           inkscape:connector-curvature="0" />
        <path
           d="m 452.9443,783.7998 0,0.2462 -0.1206,0 c -0.11,0 -0.1474,0.0569 -0.1474,0.1673 l 0,1.6048 -0.2732,0 0,-1.6216 c 0,-0.2127 0.1124,-0.3967 0.3723,-0.3967 l 0.1689,0 z m -1.2068,0.836 -0.6114,0 c 0.003,0.0879 0.008,0.1305 0.035,0.1957 0.0429,0.1079 0.1421,0.1818 0.2708,0.1818 0.1286,0 0.2253,-0.0739 0.2681,-0.1818 0.0268,-0.0652 0.0348,-0.1078 0.0375,-0.1957 m 0.2709,-0.201 0,0.1275 c 0,0.4086 -0.2119,0.6917 -0.5765,0.6917 -0.3485,0 -0.5761,-0.2689 -0.5761,-0.7344 0,-0.5471 0.2703,-0.737 0.6108,-0.737 0.2389,0 0.3701,0.0766 0.5097,0.2237 l -0.1744,0.173 c -0.0964,-0.1019 -0.1769,-0.1475 -0.3297,-0.1475 -0.2228,0 -0.3461,0.156 -0.3461,0.403 l 0.8823,0 z m -1.7778,-0.635 0.2733,0 0,1.4375 -0.2733,0 0,-1.4375 z m -0.008,1.7212 0.2893,0 0,0.3058 -0.2893,0 0,-0.3058 z m -0.3297,-1.7212 0,0 -0.6839,1.2273 0.6193,0.791 -0.354,0 -0.7802,-1.015 0,1.015 -0.2894,0 0,-2.0183 0.2894,0 0,0.5865 0.3216,0.4083 0.5364,-0.9948 0.3408,0 z m -2.608,0 0,1.4372 -0.2732,0 0,-0.8762 c 0,-0.2214 -0.1289,-0.3203 -0.2816,-0.3203 -0.1532,0 -0.2739,0.0963 -0.2739,0.3203 l 0,0.8762 -0.2732,0 0,-0.9188 c 0,-0.1614 0.0322,-0.2977 0.1366,-0.4054 0.0802,-0.0818 0.1956,-0.1302 0.3354,-0.1302 0.1366,0 0.268,0.0539 0.3619,0.1612 l 0,-0.144 0.268,0 z m -1.4747,0 0,0.2576 -0.6813,0 0.6813,0.9504 0,0.2292 -0.9763,0 0,-0.2578 0.6384,0 -0.676,-0.9502 0,-0.2292 1.0139,0 z m -1.8598,0 0,0.2462 -0.1127,0 c -0.1017,0 -0.1502,0.0624 -0.1502,0.1673 l 0,0.7773 0.2629,0 0,0.2208 -0.2629,0 0,0.4366 -0.2732,0 0,-0.4366 -0.1554,0 0,-0.2208 0.1554,0 0,-0.7913 c 0,-0.2071 0.118,-0.3995 0.3726,-0.3995 l 0.1635,0 z m -1.303,0.5188 0,0 c 0,-0.1024 -0.0187,-0.1705 -0.0591,-0.2129 -0.0724,-0.0739 -0.1501,-0.0822 -0.2549,-0.0822 -0.1718,0 -0.2496,0.0736 -0.2496,0.204 0,0.1308 0.0833,0.2073 0.2442,0.2073 l 0.3194,0 0,-0.1162 z m 0.2733,-0.5188 0,0.9609 c 0,0.3264 -0.1876,0.4933 -0.5605,0.4933 -0.2253,0 -0.3595,-0.0481 -0.488,-0.2065 l 0.1796,-0.179 c 0.0751,0.1024 0.1473,0.1393 0.2976,0.1393 0.2121,0 0.298,-0.0879 0.298,-0.2699 l 0,-0.1021 -0.3596,0 c -0.3111,0 -0.4691,-0.1726 -0.4691,-0.4138 0,-0.1221 0.0374,-0.2327 0.1072,-0.3092 0.083,-0.0878 0.1956,-0.1302 0.3645,-0.1302 0.1692,0 0.263,0.0424 0.3622,0.1472 l 0,-0.13 0.2681,0 z m -0.941,1.7125 0.2462,0 0,0.3058 -0.2462,0 0,-0.3058 z m 0.5792,0 0.2465,0 0,0.3058 -0.2465,0 0,-0.3058 z m -1.0812,-1.7125 0,0.2462 -0.1125,0 c -0.1019,0 -0.1503,0.0624 -0.1503,0.1673 l 0,0.7773 0.2628,0 0,0.2208 -0.2628,0 0,0.4366 -0.2733,0 0,-0.4366 -0.1555,0 0,-0.2208 0.1555,0 0,-0.7913 c 0,-0.2071 0.118,-0.3995 0.3725,-0.3995 l 0.1636,0 z m -1.3163,0 0.2731,0 0,1.4375 -0.2731,0 0,-1.4375 z m -0.008,1.7212 0.2892,0 0,0.3058 -0.2892,0 0,-0.3058 z m -0.4187,-1.2822 0,0 c 0,0.2552 -0.1499,0.3828 -0.4046,0.4057 l -0.2147,0.0197 c -0.1449,0.0142 -0.1879,0.0794 -0.1879,0.1644 0,0.1081 0.0833,0.1847 0.247,0.1847 0.1289,0 0.2494,-0.0282 0.3352,-0.1049 l 0.1715,0.1843 c -0.1259,0.1161 -0.3002,0.1613 -0.5039,0.1613 -0.2845,0 -0.5122,-0.1588 -0.5122,-0.4394 0,-0.2523 0.1474,-0.3743 0.4018,-0.3966 l 0.2176,-0.02 c 0.1315,-0.0114 0.1823,-0.0739 0.1823,-0.1705 0,-0.1359 -0.1312,-0.1985 -0.2975,-0.1985 -0.1344,0 -0.282,0.031 -0.3917,0.1503 l -0.1797,-0.19 c 0.1609,-0.167 0.3484,-0.2067 0.5714,-0.2067 0.3245,0 0.5654,0.1557 0.5654,0.4562 m -1.1879,0.8792 0,0 c -0.0939,0.099 -0.1931,0.136 -0.3245,0.136 -0.1529,0 -0.2923,-0.0708 -0.3622,-0.173 l 0,0.156 -0.2677,0 0,-1.4372 0.2732,0 0,0.8732 c 0,0.1985 0.1232,0.3234 0.2709,0.3234 0.0938,0 0.142,-0.0313 0.2038,-0.0966 l 0.2065,0.2182 z m -1.628,-0.4822 -0.6115,0 c 0.003,0.0879 0.008,0.1305 0.035,0.1957 0.0428,0.1079 0.142,0.1818 0.2709,0.1818 0.1286,0 0.2251,-0.0739 0.2682,-0.1818 0.0267,-0.0652 0.0347,-0.1078 0.0374,-0.1957 m 0.2708,-0.201 0,0.1275 c 0,0.4086 -0.2118,0.6917 -0.5764,0.6917 -0.3488,0 -0.5763,-0.2689 -0.5763,-0.7344 0,-0.5471 0.2704,-0.737 0.611,-0.737 0.2388,0 0.3701,0.0766 0.5097,0.2237 l -0.1745,0.173 c -0.0964,-0.1019 -0.1768,-0.1475 -0.3297,-0.1475 -0.2227,0 -0.3461,0.156 -0.3461,0.403 l 0.8823,0 z m -1.3352,0.8022 -0.2895,0 -0.3193,-1.0123 -0.3218,1.0123 -0.2896,0 0.4988,-1.4372 0.2227,0 0.4987,1.4372 z m -1.7727,-1.4372 0.2732,0 0,1.4375 -0.2732,0 0,-1.4375 z m -0.008,1.7212 0.2894,0 0,0.3058 -0.2894,0 0,-0.3058 z m -0.4533,-1.7212 0,0.9184 c 0,0.1618 -0.0322,0.2979 -0.1368,0.4053 -0.0804,0.0824 -0.1953,0.1305 -0.3352,0.1305 -0.1368,0 -0.2682,-0.0539 -0.362,-0.1617 l 0,0.1447 -0.2678,0 0,-1.4372 0.2733,0 0,0.876 c 0,0.2212 0.1287,0.3206 0.2814,0.3206 0.153,0 0.2739,-0.0966 0.2739,-0.3206 l 0,-0.876 0.2732,0 z m -1.5794,0.6799 0,1.3384 -0.2895,0 0,-1.3241 c 0,-0.2693 -0.1581,-0.4366 -0.3972,-0.4366 -0.2386,0 -0.3943,0.1673 -0.3943,0.4366 l 0,1.3241 -0.2893,0 0,-1.3384 c 0,-0.4165 0.2947,-0.6971 0.6836,-0.6971 0.3893,0 0.6867,0.2806 0.6867,0.6971 m -2.5932,-0.0279 0.7828,0 0,0.2692 -0.7828,0 0,-0.2692 z m -0.389,-0.213 0,0 c 0,0.2552 -0.1504,0.3828 -0.4048,0.4057 l -0.2149,0.0197 c -0.1448,0.0142 -0.1876,0.0794 -0.1876,0.1644 0,0.1081 0.0832,0.1847 0.2466,0.1847 0.129,0 0.2499,-0.0282 0.3355,-0.1049 l 0.1715,0.1843 c -0.1257,0.1161 -0.3,0.1613 -0.5043,0.1613 -0.2843,0 -0.5119,-0.1588 -0.5119,-0.4394 0,-0.2523 0.1473,-0.3743 0.4021,-0.3966 l 0.2175,-0.02 c 0.1313,-0.0114 0.1822,-0.0739 0.1822,-0.1705 0,-0.1359 -0.1314,-0.1985 -0.2979,-0.1985 -0.134,0 -0.2815,0.031 -0.3916,0.1503 l -0.1794,-0.19 c 0.1606,-0.167 0.3485,-0.2067 0.571,-0.2067 0.3248,0 0.566,0.1557 0.566,0.4562 m -1.341,-0.439 0,0.2462 -0.1127,0 c -0.1018,0 -0.1502,0.0624 -0.1502,0.1673 l 0,0.7773 0.2629,0 0,0.2208 -0.2629,0 0,0.4366 -0.2733,0 0,-0.4366 -0.1555,0 0,-0.2208 0.1555,0 0,-0.7913 c 0,-0.2071 0.1182,-0.3995 0.3725,-0.3995 l 0.1637,0 z m -1.0298,0 0,0.9271 c 0,0.3119 -0.1686,0.5271 -0.4718,0.5271 -0.1344,0 -0.2578,-0.0539 -0.3516,-0.1617 l 0,0.7258 -0.2733,0 0,-2.0183 0.2733,0 0,0.8819 c 0,0.2153 0.1235,0.3147 0.2763,0.3147 0.153,0 0.2739,-0.0966 0.2739,-0.3147 l 0,-0.8819 0.2732,0 z m -1.4535,0.1868 0,0 -0.1879,0.1899 c -0.0858,-0.0991 -0.1527,-0.136 -0.2601,-0.136 -0.1045,0 -0.1931,0.0452 -0.2521,0.1276 -0.059,0.0794 -0.0803,0.1843 -0.0803,0.3515 0,0.1673 0.0213,0.2697 0.0803,0.3491 0.059,0.0822 0.1476,0.1277 0.2521,0.1277 0.1074,0 0.1743,-0.037 0.2601,-0.1364 l 0.1879,0.193 c -0.1289,0.1443 -0.2602,0.201 -0.448,0.201 -0.3058,0 -0.6057,-0.1954 -0.6057,-0.7344 0,-0.5389 0.2999,-0.737 0.6057,-0.737 0.1878,0 0.3191,0.0597 0.448,0.204 m -1.6574,0.6492 -0.6116,0 c 0.003,0.0879 0.008,0.1305 0.035,0.1957 0.0429,0.1079 0.1421,0.1818 0.2707,0.1818 0.1287,0 0.2254,-0.0739 0.2683,-0.1818 0.0269,-0.0652 0.0348,-0.1078 0.0376,-0.1957 m 0.2707,-0.201 0,0.1275 c 0,0.4086 -0.2117,0.6917 -0.5766,0.6917 -0.3486,0 -0.5761,-0.2689 -0.5761,-0.7344 0,-0.5471 0.2704,-0.737 0.6111,-0.737 0.2386,0 0.3701,0.0766 0.5094,0.2237 l -0.1741,0.173 c -0.0967,-0.1019 -0.1772,-0.1475 -0.3299,-0.1475 -0.2226,0 -0.3461,0.156 -0.3461,0.403 l 0.8823,0 z m -1.2599,0.6832 0,0 c -0.0938,0.099 -0.193,0.136 -0.3245,0.136 -0.1528,0 -0.2923,-0.0708 -0.3619,-0.173 l 0,0.156 -0.2678,0 0,-1.4372 0.2732,0 0,0.8732 c 0,0.1985 0.1232,0.3234 0.2707,0.3234 0.0939,0 0.1423,-0.0313 0.2038,-0.0966 l 0.2065,0.2182 z m -1.6383,-0.5984 0,0 c 0,-0.2551 -0.0348,-0.4791 -0.2816,-0.4791 -0.247,0 -0.2845,0.224 -0.2845,0.4791 0,0.2556 0.0375,0.4768 0.2845,0.4768 0.2468,0 0.2816,-0.2212 0.2816,-0.4768 m 0.2733,0 0,0 c 0,0.2186 -0.0161,0.4626 -0.1526,0.6069 -0.0749,0.0794 -0.1929,0.1275 -0.3297,0.1275 -0.145,0 -0.2579,-0.037 -0.3571,-0.1617 l 0,0.7258 -0.2733,0 0,-2.0183 0.2679,0 0,0.1527 c 0.1019,-0.1302 0.2122,-0.1699 0.3598,-0.1699 0.1366,0 0.2575,0.0484 0.3324,0.1273 0.1365,0.1446 0.1526,0.3915 0.1526,0.6097 m -1.4536,-0.7198 0,0.2462 -0.1206,0 c -0.11,0 -0.1474,0.0569 -0.1474,0.1673 l 0,1.6048 -0.2733,0 0,-1.6216 c 0,-0.2127 0.1125,-0.3967 0.3724,-0.3967 l 0.1689,0 z m -1.3862,0.6659 -0.5873,0 0.2977,0.8959 0.2896,-0.8959 z m 0.5203,-0.6659 0,0 -0.7,2.0183 -0.2333,0 -0.6998,-2.0183 0.3083,0 0.1315,0.4053 0.7536,0 0.1314,-0.4053 0.3083,0 z m -2.6576,0.652 0.7828,0 0,0.2692 -0.7828,0 0,-0.2692 z m -0.4241,-0.652 0,0.9184 c 0,0.1618 -0.0319,0.2979 -0.1365,0.4053 -0.0805,0.0824 -0.1959,0.1305 -0.3352,0.1305 -0.1368,0 -0.2682,-0.0539 -0.3624,-0.1617 l 0,0.1447 -0.2676,0 0,-1.4372 0.2731,0 0,0.876 c 0,0.2212 0.1291,0.3206 0.2818,0.3206 0.153,0 0.2738,-0.0966 0.2738,-0.3206 l 0,-0.876 0.273,0 z m -1.7827,0.5188 0,0 c 0,-0.1024 -0.0189,-0.1705 -0.0593,-0.2129 -0.0724,-0.0739 -0.1503,-0.0822 -0.2548,-0.0822 -0.1716,0 -0.2498,0.0736 -0.2498,0.204 0,0.1308 0.0833,0.2073 0.2443,0.2073 l 0.3196,0 0,-0.1162 z m 0.2728,-0.5188 0,0.9609 c 0,0.3264 -0.1874,0.4933 -0.5602,0.4933 -0.2251,0 -0.3592,-0.0481 -0.4881,-0.2065 l 0.1798,-0.179 c 0.075,0.1024 0.1474,0.1393 0.2976,0.1393 0.2118,0 0.2981,-0.0879 0.2981,-0.2699 l 0,-0.1021 -0.3597,0 c -0.3111,0 -0.469,-0.1726 -0.469,-0.4138 0,-0.1221 0.0373,-0.2327 0.107,-0.3092 0.083,-0.0878 0.1956,-0.1302 0.3647,-0.1302 0.169,0 0.2627,0.0424 0.3622,0.1472 l 0,-0.13 0.2676,0 z m -1.7478,0 0.2732,0 0,1.4375 -0.2732,0 0,-1.4375 z m -0.008,1.7212 0.2893,0 0,0.3058 -0.2893,0 0,-0.3058 z m -0.4348,-1.7212 0,0.2462 -0.1125,0 c -0.1019,0 -0.1501,0.0624 -0.1501,0.1673 l 0,0.7773 0.2626,0 0,0.2208 -0.2626,0 0,0.4366 -0.2739,0 0,-0.4366 -0.1551,0 0,-0.2208 0.1551,0 0,-0.7913 c 0,-0.2071 0.118,-0.3995 0.3731,-0.3995 l 0.1634,0 z m -0.9681,0.439 0,0 c 0,0.2552 -0.1502,0.3828 -0.4047,0.4057 l -0.2148,0.0197 c -0.1448,0.0142 -0.1877,0.0794 -0.1877,0.1644 0,0.1081 0.0832,0.1847 0.2468,0.1847 0.1289,0 0.2497,-0.0282 0.3356,-0.1049 l 0.1713,0.1843 c -0.1259,0.1161 -0.3002,0.1613 -0.5043,0.1613 -0.2842,0 -0.5118,-0.1588 -0.5118,-0.4394 0,-0.2523 0.1472,-0.3743 0.402,-0.3966 l 0.2173,-0.02 c 0.1316,-0.0114 0.1826,-0.0739 0.1826,-0.1705 0,-0.1359 -0.1316,-0.1985 -0.2982,-0.1985 -0.1339,0 -0.2816,0.031 -0.3914,0.1503 l -0.1794,-0.19 c 0.1605,-0.167 0.3484,-0.2067 0.5708,-0.2067 0.3248,0 0.5659,0.1557 0.5659,0.4562 m -1.7536,-0.439 0.2732,0 0,1.4375 -0.2732,0 0,-1.4375 z m -0.008,1.7212 0.2892,0 0,0.3058 -0.2892,0 0,-0.3058 z m -0.2552,-0.403 0,0 c -0.0939,0.099 -0.1931,0.136 -0.3246,0.136 -0.1527,0 -0.2921,-0.0708 -0.362,-0.173 l 0,0.156 -0.2677,0 0,-1.4372 0.2732,0 0,0.8732 c 0,0.1985 0.1234,0.3234 0.2707,0.3234 0.0939,0 0.1422,-0.0313 0.2038,-0.0966 l 0.2066,0.2182 z m -1.4161,-1.3182 0,0.9271 c 0,0.3119 -0.1686,0.5271 -0.4717,0.5271 -0.1342,0 -0.2577,-0.0539 -0.3516,-0.1617 l 0,0.7258 -0.2731,0 0,-2.0183 0.2731,0 0,0.8819 c 0,0.2153 0.1235,0.3147 0.2762,0.3147 0.1534,0 0.2739,-0.0966 0.2739,-0.3147 l 0,-0.8819 0.2732,0 z m -1.5447,0.6033 -0.2923,0 c -0.0455,-0.2038 -0.177,-0.3457 -0.3889,-0.3457 -0.1125,0 -0.2144,0.0455 -0.2816,0.1219 -0.0937,0.1079 -0.1153,0.2238 -0.1153,0.6293 0,0.406 0.0216,0.5222 0.1153,0.6298 0.0672,0.0768 0.1691,0.1223 0.2816,0.1223 0.2119,0 0.3408,-0.1418 0.3864,-0.3461 l 0.2948,0 c -0.0669,0.4026 -0.3299,0.6208 -0.6812,0.6208 -0.1984,0 -0.3701,-0.0765 -0.5013,-0.2153 -0.1876,-0.1985 -0.1849,-0.4225 -0.1849,-0.8115 0,-0.3883 -0.003,-0.6121 0.1849,-0.8106 0.1312,-0.1388 0.3029,-0.2154 0.5013,-0.2154 0.346,0 0.6168,0.2181 0.6812,0.6205"
           style="fill:#ffffff;fill-opacity:1;fill-rule:nonzero;stroke:none"
           id="path162"
           inkscape:connector-curvature="0" />
      </g>
    </g>
    <g
       transform="matrix(1.25,0,0,-1.25,-906.95982,1442.2705)"
       id="g164">
      <g
         id="g166"
         clip-path="url(#clipPath168)">
        <path
           d="m 544.3354,785.0237 c -0.5835,-0.488 -1.2064,-0.97 -1.8685,-1.4477 -0.6649,0.4799 -1.2852,0.961 -1.8671,1.4477 -0.5977,0.4992 -1.1537,1.0047 -1.6684,1.5165 l 1.4926,1.5114 c 0.5777,-0.7357 1.2369,-1.4137 2.0435,-2.1042 3.5056,2.9778 4.8681,6.3951 4.1161,10.2702 l -6.9664,0 c 0.1375,0.4066 0.1969,0.8452 0.1969,1.3023 0,0.6539 -0.1532,1.2696 -0.424,1.8092 l 11.2431,0 c 0.8275,-5.4974 -1.2718,-10.1036 -6.2978,-14.3054 m -6.1565,9.2382 c -0.0263,-2.029 0.5915,-3.8916 1.8255,-5.6565 l -1.5556,-1.5708 c -2.0939,2.2132 -3.4271,4.5515 -3.9996,7.0792 0.5123,-0.2909 1.0979,-0.456 1.7199,-0.456 0.7409,0 1.4342,0.2017 2.0098,0.6041"
           style="fill:#25619d;fill-opacity:1;fill-rule:nonzero;stroke:none"
           id="path172"
           inkscape:connector-curvature="0" />
        <path
           d="m 533.1564,797.5198 c 0,1.7629 1.3488,3.1916 3.0126,3.1916 1.6636,0 3.0124,-1.4287 3.0124,-3.1916 0,-1.7627 -1.3488,-3.1916 -3.0124,-3.1916 -1.6638,0 -3.0126,1.4289 -3.0126,3.1916"
           style="fill:#aec4e2;fill-opacity:1;fill-rule:nonzero;stroke:none"
           id="path174"
           inkscape:connector-curvature="0" />
        <path
           d="m 555.1684,786.8612 0,-0.1376 c 0.3943,-0.0285 0.4033,-0.038 0.4033,-0.304 l 0,-1.5386 c 0,-0.4511 -0.0671,-0.7362 -0.2019,-0.9261 -0.1389,-0.1898 -0.3362,-0.2848 -0.5959,-0.2848 -0.2555,0 -0.4529,0.095 -0.5917,0.2848 -0.1346,0.1899 -0.202,0.475 -0.202,0.9261 l 0,1.5386 c 0,0.266 0.0136,0.2755 0.4036,0.304 l 0,0.1376 -1.2503,0 0,-0.1376 c 0.3943,-0.0285 0.4033,-0.038 0.4033,-0.304 l 0,-1.6429 c 0.004,-0.2802 0.0447,-0.5317 0.1208,-0.6934 0.2062,-0.4653 0.677,-0.5796 1.1163,-0.5796 0.4437,0 0.9145,0.1094 1.1204,0.5796 0.0763,0.1661 0.1211,0.4178 0.1211,0.7028 l 0,1.6335 c 0,0.266 0.0134,0.2755 0.4033,0.304 l 0,0.1376 -1.2503,0 m 1.5865,0 0,-0.1376 c 0.3943,-0.0285 0.4033,-0.038 0.4033,-0.304 l 0,-1.8803 c 0,-0.2517 -0.009,-0.4322 -0.0311,-0.5888 -0.027,-0.1999 -0.1349,-0.2184 -0.3674,-0.2376 l 0,-0.1379 1.0619,0 0,0.1379 c -0.2912,0.0238 -0.3991,0.0377 -0.4259,0.2376 -0.0226,0.1566 -0.0311,0.3371 -0.0311,0.5888 l 0,1.8946 0.009,0 c 0.6413,-0.9546 1.2779,-1.9041 1.9097,-2.8589 l 0.2961,0 0,2.3224 c 0,0.2515 0.009,0.4322 0.0311,0.5888 0.027,0.1994 0.1347,0.2184 0.3678,0.2374 l 0,0.1376 -1.0623,0 0,-0.1376 c 0.2914,-0.0239 0.3985,-0.038 0.4255,-0.2374 0.0228,-0.1566 0.0317,-0.3373 0.0317,-0.5888 l 0,-1.667 -0.009,0.01 c -0.5876,0.8739 -1.17,1.7475 -1.7486,2.6213 l -0.8603,0 m 4.4466,-0.4416 c 0,0.266 0.0134,0.2755 0.4033,0.304 l 0,0.1376 -1.2507,0 0,-0.1376 c 0.3948,-0.0285 0.4038,-0.038 0.4038,-0.304 l 0,-2.403 c 0,-0.266 -0.009,-0.2755 -0.4038,-0.3037 l 0,-0.1379 1.2507,0 0,0.1379 c -0.3901,0.0282 -0.4033,0.0377 -0.4033,0.3037 l 0,2.403 m 0.7132,0.4416 0,-0.1376 c 0.2511,-0.01 0.3048,-0.0285 0.3945,-0.28 0.1432,-0.3989 0.3092,-0.8738 0.4661,-1.3488 l 0.5065,-1.5198 0.3183,0 0.5737,1.6387 c 0.1835,0.527 0.3631,1.0113 0.4706,1.263 0.0941,0.223 0.148,0.2327 0.3899,0.2469 l 0,0.1376 -0.9906,0 0,-0.1376 0.2467,-0.0258 c 0.1167,-0.01 0.1209,-0.0572 0.0983,-0.1472 -0.0493,-0.2087 -0.1882,-0.6265 -0.3494,-1.1009 l -0.4662,-1.362 -0.009,0.01 -0.4169,1.2195 c -0.1388,0.413 -0.2777,0.8306 -0.3941,1.2103 -0.036,0.1185 -0.0226,0.1613 0.0851,0.1708 l 0.2331,0.0258 0,0.1376 -1.1566,0 m 3.4015,0 0,-0.1376 c 0.3947,-0.0285 0.4037,-0.038 0.4037,-0.304 l 0,-2.403 c 0,-0.266 -0.009,-0.2755 -0.4037,-0.3037 l 0,-0.1379 2.3759,0 0.0537,0.8215 -0.1344,0 c -0.1031,-0.5793 -0.3046,-0.6554 -0.8698,-0.6554 -0.2105,0 -0.3717,0.01 -0.466,0.0477 -0.0943,0.0428 -0.1121,0.1235 -0.1121,0.356 l 0,1.0495 0.6277,0 c 0.3809,0 0.3989,-0.1139 0.4393,-0.413 l 0.1342,0 0,1.002 -0.1342,0 c -0.0404,-0.2943 -0.0584,-0.4083 -0.4393,-0.4083 l -0.6277,0 0,1.1496 c 0,0.1515 0.0224,0.1705 0.1658,0.1705 l 0.4393,0 c 0.511,0 0.6141,-0.1187 0.677,-0.6124 l 0.1342,0 0,0.7785 -2.2636,0 m 3.6854,-1.5718 0,1.1686 c 0,0.1992 0.0317,0.2371 0.3276,0.2371 0.3316,0 0.7077,-0.1282 0.7077,-0.6883 0,-0.499 -0.2463,-0.7174 -0.681,-0.7174 l -0.3543,0 m 0.3096,-0.1662 c 0.2689,0 0.475,-0.0902 0.5513,-0.4129 0.0314,-0.1333 0.0805,-0.5083 0.1301,-0.727 0.0671,-0.3037 0.2373,-0.4083 0.5018,-0.4083 l 0.3631,0 0,0.1379 c -0.3498,0.0377 -0.4215,0.3037 -0.4618,0.6267 -0.0538,0.4225 -0.1345,0.7408 -0.6095,0.8644 l 0,0.01 c 0.4213,0.0854 0.7305,0.3843 0.7305,0.8355 0,0.456 -0.2688,0.812 -1.0533,0.812 l -1.3084,0 0,-0.1376 c 0.3941,-0.0285 0.4031,-0.038 0.4031,-0.304 l 0,-2.403 c 0,-0.266 -0.009,-0.2755 -0.4031,-0.3037 l 0,-0.1379 1.2499,0 0,0.1379 c -0.3896,0.0282 -0.4033,0.0377 -0.4033,0.3037 l 0,1.1066 0.3096,0 z m 1.9634,-1.3344 c 0.1974,-0.1946 0.5693,-0.2851 0.8834,-0.2851 0.7932,0 1.107,0.4796 1.107,0.9639 0,0.5606 -0.3587,0.8264 -0.8833,1.0309 l -0.1432,0.0569 c -0.3005,0.1187 -0.5516,0.323 -0.5516,0.608 0,0.3466 0.1972,0.6032 0.5739,0.6032 0.3854,0 0.6007,-0.233 0.6722,-0.7126 l 0.1391,0 0,0.6696 c -0.1525,0.1284 -0.4571,0.2091 -0.7619,0.2091 -0.547,0 -1.031,-0.2897 -1.031,-0.9169 0,-0.4983 0.3766,-0.7593 0.8472,-0.9354 l 0.0807,-0.033 c 0.1972,-0.0808 0.6229,-0.2994 0.6229,-0.7219 0,-0.4086 -0.2466,-0.6554 -0.6455,-0.6554 -0.4213,0 -0.6989,0.3465 -0.8112,0.8787 l -0.1434,0 0.0447,-0.76 m 3.2809,2.6308 c 0,0.266 0.0133,0.2755 0.4033,0.304 l 0,0.1376 -1.2503,0 0,-0.1376 c 0.3941,-0.0285 0.4035,-0.038 0.4035,-0.304 l 0,-2.403 c 0,-0.266 -0.009,-0.2755 -0.4035,-0.3037 l 0,-0.1379 1.2503,0 0,0.1379 c -0.39,0.0282 -0.4033,0.0377 -0.4033,0.3037 l 0,2.403 m 2.3629,0.2755 0.2643,0 c 0.5246,0 0.6187,-0.1043 0.6724,-0.6221 l 0.1346,0 0,0.7882 -2.5864,0 0,-0.7882 0.1346,0 c 0.0537,0.5178 0.148,0.6221 0.6722,0.6221 l 0.2647,0 0,-2.6785 c 0,-0.266 -0.0136,-0.2755 -0.4932,-0.3037 l 0,-0.1379 1.4301,0 0,0.1379 c -0.4797,0.0282 -0.4933,0.0377 -0.4933,0.3037 l 0,2.6785 m 3.5589,-3.1201 0,0.1379 c -0.4616,0.0282 -0.4748,0.0425 -0.4748,0.3037 l 0,0.7265 c 0,0.1145 0.0132,0.1856 0.0579,0.2806 0.2288,0.4841 0.5648,1.1492 0.704,1.3864 0.1522,0.2612 0.1792,0.2993 0.4796,0.3135 l 0,0.1376 -0.9818,0 0,-0.1376 0.2421,-0.0239 c 0.0807,-0.009 0.0897,-0.0617 0.0537,-0.1517 -0.112,-0.2851 -0.4166,-0.9354 -0.6544,-1.4294 l -0.009,0 c -0.2598,0.4984 -0.493,0.9784 -0.6901,1.4342 -0.036,0.0852 -0.018,0.1328 0.0493,0.1423 l 0.2645,0.0285 0,0.1376 -1.161,0 0,-0.1376 c 0.2375,-0.01 0.3004,-0.038 0.3991,-0.2374 0.2507,-0.4893 0.5154,-1.0164 0.7349,-1.4865 0.0494,-0.0995 0.0672,-0.1805 0.0672,-0.2753 l 0,-0.7078 c 0,-0.2612 -0.0132,-0.2755 -0.4753,-0.3037 l 0,-0.1379 1.3941,0 m -26.3177,8.128 c 0,0.2661 0.0136,0.2756 0.4035,0.3038 l 0,0.1379 -1.2502,0 0,-0.1379 c 0.3943,-0.0282 0.4031,-0.0377 0.4031,-0.3038 l 0,-2.194 c 0,-0.4606 -0.0763,-0.6887 -0.1836,-0.8262 -0.0989,-0.1237 -0.2601,-0.2045 -0.4169,-0.2468 l 0.0224,-0.1189 c 0.175,0.009 0.3899,0.0619 0.5647,0.1471 0.4035,0.1948 0.457,0.5893 0.457,1.0735 l 0,2.1653 m 2.2229,-1.3965 -0.8919,0 c 0.1436,0.4752 0.3007,0.9407 0.4349,1.3581 l 0.0134,0 0.4436,-1.3581 m 1.1792,-1.4481 0,0.1377 c -0.2601,0.0238 -0.3094,0.0382 -0.3901,0.285 l -0.9505,2.8636 -0.3316,0 -0.4706,-1.4055 c -0.1388,-0.4132 -0.327,-0.9833 -0.4838,-1.4153 -0.0943,-0.2565 -0.1347,-0.3135 -0.4173,-0.3278 l 0,-0.1377 0.9862,0 0,0.1377 -0.2329,0.0238 c -0.1345,0.0144 -0.148,0.0616 -0.1123,0.19 0.0765,0.285 0.1704,0.5793 0.2737,0.9166 l 1.004,0 0.3006,-0.9069 c 0.0446,-0.1381 0.0222,-0.1902 -0.1212,-0.2043 l -0.2018,-0.0192 0,-0.1377 1.1476,0 z m 2.7168,3.1725 c -0.202,0.0995 -0.5426,0.1851 -0.9505,0.1851 -0.5511,0 -0.995,-0.171 -1.2639,-0.4891 -0.2557,-0.3043 -0.4077,-0.7126 -0.4077,-1.2492 0,-0.5555 0.1566,-1.002 0.4255,-1.2868 0.2781,-0.2945 0.7171,-0.4037 1.2191,-0.4037 0.3588,0 0.7711,0.1046 0.9865,0.2281 l 0.0625,0.7929 -0.1345,0 c -0.1256,-0.4938 -0.3539,-0.8549 -0.941,-0.8549 -0.9235,0 -1.1165,0.9641 -1.1165,1.5388 0,0.7787 0.2915,1.5626 1.1253,1.5577 0.4568,0 0.7754,-0.1996 0.8605,-0.76 l 0.1347,0 0,0.7411 m 2.0073,0.1851 c -0.4928,0 -0.8603,-0.1613 -1.1114,-0.4607 -0.2417,-0.285 -0.381,-0.717 -0.381,-1.2537 0,-0.5317 0.1393,-0.969 0.381,-1.2538 0.2511,-0.2993 0.6186,-0.4606 1.1114,-0.4606 0.4978,0 0.8606,0.1613 1.1119,0.4606 0.2463,0.2848 0.3813,0.7221 0.3813,1.2538 0,0.5367 -0.135,0.9687 -0.3813,1.2537 -0.2513,0.2994 -0.6141,0.4607 -1.1119,0.4607 m 0,-0.1662 c 0.7983,0 0.982,-0.8502 0.9908,-1.5482 -0.009,-0.6983 -0.1925,-1.5483 -0.9908,-1.5483 -0.7976,0 -0.9812,0.85 -0.9906,1.5483 0.009,0.698 0.193,1.5482 0.9906,1.5482 m 2.6973,-0.3088 c 0,0.2043 0.0134,0.2327 0.3627,0.2376 0.3231,0.005 0.686,-0.1284 0.686,-0.6177 0,-0.4651 -0.2822,-0.6506 -0.7485,-0.6506 l -0.3002,0 0,1.0307 m 0,-1.1969 0.3226,0 c 0.5561,0 0.8608,-0.2943 0.8608,-0.7975 0,-0.57 -0.3676,-0.7218 -0.7533,-0.7218 -0.3584,0 -0.4301,0.071 -0.4301,0.3658 l 0,1.1535 z m 0.5421,-1.6857 c 0.6814,0 1.1209,0.261 1.1209,0.9213 0,0.5604 -0.3766,0.8072 -0.8114,0.869 l 0,0.01 c 0.4213,0.09 0.6678,0.3656 0.6678,0.7313 0,0.2615 -0.0985,0.456 -0.2777,0.5842 -0.175,0.1236 -0.4441,0.1756 -0.7936,0.171 l -1.2955,0 0,-0.1379 c 0.3947,-0.0282 0.4037,-0.0377 0.4037,-0.3038 l 0,-2.4029 c 0,-0.2658 -0.009,-0.2753 -0.4037,-0.304 l 0,-0.1377 1.3895,0 z m 1.717,0.2136 c 0.1973,-0.1946 0.5691,-0.2848 0.8831,-0.2848 0.7935,0 1.1071,0.4796 1.1071,0.9641 0,0.5603 -0.3588,0.8264 -0.883,1.0304 l -0.1434,0.057 c -0.3004,0.1187 -0.5511,0.3232 -0.5511,0.6078 0,0.3468 0.1969,0.6033 0.5735,0.6033 0.3855,0 0.6007,-0.2327 0.6724,-0.7123 l 0.139,0 0,0.6693 c -0.1526,0.1282 -0.4572,0.2092 -0.7623,0.2092 -0.5467,0 -1.0309,-0.2897 -1.0309,-0.9169 0,-0.4984 0.3767,-0.7596 0.8473,-0.9352 l 0.0808,-0.0333 c 0.1971,-0.0808 0.623,-0.2992 0.623,-0.7219 0,-0.4081 -0.2463,-0.6554 -0.6456,-0.6554 -0.4213,0 -0.6992,0.3468 -0.8112,0.8785 l -0.1435,0 0.0448,-0.7598"
           style="fill:#687176;fill-opacity:1;fill-rule:nonzero;stroke:none"
           id="path176"
           inkscape:connector-curvature="0" />
      </g>
    </g>
  </g>
</svg>
